<?xml version="1.0" encoding="UTF-8"?><svg xmlns="http://www.w3.org/2000/svg" viewBox="0 0 291.65 869.5"><defs><style>.d{fill:#e6007e;}.e{fill:#fff;}.f{fill:#ffed00;}.g{fill:#e4e311;}.h{fill:#8620dc;}.i{fill:#d40fe9;}.j{fill:#06dc6f;}.k{fill:#15d9d6;}.l{fill:#306eff;}.m{opacity:.9;}</style></defs><g id="a"/><g id="b"><g id="c"><rect class="e" x=".74" width="290.91" height="1.39"/><rect class="e" x="-433.98" y="434.1" width="869.5" height="1.31" transform="translate(-433.98 435.52) rotate(-90)"/><rect class="e" x=".74" y="36.3" width="290.91" height="1.39"/><rect class="e" x="-143.69" y="434.17" width="869.5" height="1.17" transform="translate(-143.69 725.81) rotate(-90)"/><rect class="e" x="-324.43" y="434.6" width="868.46" height="1.34" transform="translate(-325.48 545.07) rotate(-90)"/><rect class="e" x="-289.18" y="434.43" width="868.8" height="1.34" transform="translate(-289.87 580.33) rotate(-90)"/><rect class="e" x="-251.82" y="433.73" width="867.41" height="1.35" transform="translate(-252.52 616.29) rotate(-90)"/><rect class="e" x="-360.51" y="434.66" width="868.11" height="1.56" transform="translate(-361.9 508.99) rotate(-90)"/><rect class="e" x="-397.24" y="434.48" width="868.8" height="1.24" transform="translate(-397.94 472.26) rotate(-90)"/><rect class="e" x="-216.04" y="434.53" width="868.81" height="1.13" transform="translate(-216.74 653.46) rotate(-90)"/><rect class="e" x="-180.6" y="434.09" width="869.5" height="1.32" transform="translate(-180.6 688.9) rotate(-90)"/><rect class="e" x=".03" y="72.33" width="290.91" height="1.39"/><rect class="e" x=".74" y="108.35" width="290.91" height="1.39"/><rect class="e" x=".74" y="144.66" width="290.91" height="1.39"/><rect class="e" x=".73" y="180.96" width="290.91" height="1.39"/><rect class="e" x=".74" y="217.26" width="290.91" height="1.39"/><rect class="e" x=".74" y="253.57" width="290.91" height="1.39"/><rect class="e" x=".03" y="289.87" width="290.91" height="1.39"/><path class="d" d="M10.6,19.5c0-4.3,1.94-6.78,5.47-6.78s5.46,2.48,5.46,6.78-1.93,6.74-5.46,6.74-5.47-2.46-5.47-6.74Zm8.82-.02c0-4.33-.95-6.06-3.35-6.06s-3.37,1.73-3.37,6.06,.95,6.04,3.37,6.04,3.35-1.69,3.35-6.04Z"/><path class="d" d="M49.64,19.5c0-4.3,1.94-6.78,5.47-6.78s5.46,2.48,5.46,6.78-1.93,6.74-5.46,6.74-5.47-2.46-5.47-6.74Zm3.13,5.07l4.05-10.71c-.47-.29-1.03-.43-1.71-.43-2.47,0-3.42,1.73-3.42,6.06,0,2.53,.32,4.17,1.08,5.09Zm5.74-5.09c0-2.52-.32-4.17-1.08-5.09l-4.05,10.71c.47,.29,1.03,.41,1.73,.41,2.45,0,3.4-1.69,3.4-6.04Z"/><path class="d" d="M90.02,13.72h-2.32v-.7h4.32v13.27h-2V13.72Z"/><path class="d" d="M121.72,25.57l4.23-4.73c.86-.93,1.6-1.73,2.05-2.48,.4-.65,.61-1.28,.61-1.94,0-2.19-1.49-2.75-3.85-2.75-.92,0-1.84,.11-2.58,.23v-.65c1.06-.21,2.25-.34,3.31-.34,3.33,0,5.2,.95,5.2,3.59,0,.93-.31,1.74-.83,2.57-.58,.88-1.39,1.8-2.36,2.86l-3.29,3.65h6.93v.7h-9.43v-.72Z"/><path class="d" d="M157.82,25.88v-.65c.99,.13,2,.23,3.01,.23,2.88,0,4.16-.83,4.16-3.07s-1.28-3-3.69-3h-1.96v-.72h1.89c2.12,0,3.49-.41,3.49-2.55s-1.41-2.62-3.89-2.62c-1.01,0-2.02,.09-3.01,.23v-.65c1.15-.21,2.43-.34,3.57-.34,2.72,0,5.37,.63,5.37,3.25,0,1.38-.83,2.55-2.86,2.97,2.12,.36,3.22,1.58,3.22,3.45,0,2.91-2.68,3.81-5.73,3.81-1.13,0-2.41-.12-3.57-.34Z"/><path class="d" d="M194.96,21.83l6.7-8.81h1.93v8.81h1.93v.7h-1.93v3.76h-2v-3.76h-6.63v-.7Zm6.63,0v-7.55l-5.74,7.55h5.74Z"/><path class="d" d="M231.33,26.06v-.65c1.08,.13,2.2,.23,3.31,.23,2.81,0,3.83-1.13,3.83-3.43s-1.13-3.22-3.73-3.22h-3.1v-5.97h8.17v.7h-6.27v4.55h1.93c3.55,0,5.13,1.4,5.13,3.94,0,2.95-2.07,4.19-5.42,4.19-1.22,0-2.63-.14-3.87-.34Z"/><path class="d" d="M268.56,20.32c0-4.85,2.27-7.28,6.28-7.28,.97,0,1.84,.11,2.81,.32v.65c-.81-.13-1.51-.22-2.36-.22-3.47,0-4.61,1.62-4.63,5.9,.68-1.44,2.2-1.82,3.75-1.82,2.52,0,4.52,1.33,4.52,4.24,0,3.13-2.36,4.42-5.09,4.42-3.04,0-5.28-1.58-5.28-6.22Zm8.26,1.98c0-2.8-1.13-3.61-3.06-3.61s-3.08,.81-3.08,3.61,1.13,3.56,3.08,3.56,3.06-.79,3.06-3.56Z"/><path class="d" d="M20.35,48.69h-7.13v-.7h9.31v.7l-6.01,12.56h-2.2l6.03-12.56Z"/><path class="d" d="M47.81,57.16c0-1.64,.83-2.8,2.79-3.34-1.73-.47-2.45-1.56-2.45-2.97,0-2.12,1.57-3.49,4.93-3.49s4.92,1.37,4.92,3.47c0,1.42-.76,2.5-2.48,2.98,2,.54,2.83,1.69,2.83,3.34,0,2.35-1.75,3.79-5.26,3.79s-5.28-1.4-5.28-3.79Zm8.43,.02c0-2.01-.94-3.04-3.15-3.04s-3.15,1.02-3.15,3.04c0,2.14,.92,3.11,3.15,3.11s3.15-1.01,3.15-3.11Zm-.31-6.34c0-1.85-.77-2.8-2.84-2.8s-2.86,.95-2.86,2.8,.77,2.66,2.86,2.66,2.84-.81,2.84-2.66Z"/><path class="d" d="M85.89,60.79v-.65c.81,.13,1.5,.22,2.34,.22,3.38,0,4.56-1.56,4.61-5.86-.68,1.42-2.21,1.82-3.75,1.82-2.52-.02-4.48-1.38-4.48-4.31,0-3.15,2.36-4.39,5.04-4.39,3.06,0,5.28,1.6,5.31,6.2,.04,4.87-2.23,7.3-6.28,7.3-.97,0-1.82-.11-2.79-.32Zm6.93-8.92c0-2.75-1.13-3.6-3.08-3.6s-3.06,.84-3.06,3.6,1.13,3.63,3.06,3.63,3.08-.83,3.08-3.63Z"/><path class="j" d="M121.52,47.96h1.82l4.88,13.27h-2.09l-1.48-4.04h-5.69l-1.46,4.04h-.81l4.83-13.27Zm-2.29,8.5h5.15l-2.59-7.08-2.56,7.08Z"/><path class="j" d="M151.23,48.12h4.36c3.28,0,5.33,.7,5.33,3.49,0,1.74-1.21,2.75-2.93,2.95,1.76,.2,3.24,1.13,3.24,3.18,0,2.86-2.29,3.65-5.67,3.65-1.01,0-3.6,0-4.32-.02v-13.25Zm4.5,6.15c2.56,0,3.17-.9,3.17-2.64,0-2.37-1.06-2.79-3.31-2.79h-2.39v5.43h2.54Zm-.14,6.4c2.32,0,3.56-.49,3.56-2.97,0-1.8-.67-2.79-3.38-2.79h-2.57v5.75h2.39Z"/><path class="j" d="M188.42,54.5c0-4.71,2.32-6.76,6.48-6.76,1.01,0,2.07,.13,3.1,.34v.65c-.83-.14-1.69-.23-2.54-.23-3.71,0-4.93,1.55-4.93,5.97s1.22,6,4.93,6c.9,0,1.69-.11,2.54-.23v.65c-1.04,.22-2.05,.34-3.1,.34-4.16,0-6.48-2.01-6.48-6.72Z"/><path class="j" d="M225.61,48.24h4.57c4.29,0,6.25,2.39,6.25,6.65s-1.96,6.61-6.25,6.61h-4.57v-13.27Zm4.34,12.55c3.12,0,4.38-1.55,4.38-5.93s-1.26-5.9-4.38-5.9h-2.36v11.83h2.36Z"/><path class="j" d="M263.82,47.53h8.8v.72h-6.79v5.38h6.18v.72h-6.18v5.73h6.91v.72h-8.93v-13.27Z"/><path class="j" d="M8.6,84.64h8.7v.72h-6.68v5.55h6.05v.72h-6.05v6.27h-2.02v-13.27Z"/><path class="j" d="M43.53,91.08c0-4.85,2.56-6.76,6.81-6.76,1.17,0,2.52,.13,3.69,.34v.65c-1.01-.13-2.12-.23-3.12-.23-4.18,0-5.28,1.44-5.28,5.97s1.17,6,5.04,6c.61,0,1.22-.04,1.8-.09v-5.72h-2.9v-.72h4.84v7.01c-1.28,.2-2.72,.27-4.07,.27-4.29,0-6.82-1.76-6.82-6.72Z"/><path class="j" d="M90.25,91.35h-6.34v6.45h-2.02v-13.27h2.02v6.09h6.34v-6.09h2v13.27h-2v-6.45Z"/><path class="j" d="M123.18,84.53h2.02v13.27h-2.02v-13.27Z"/><path class="j" d="M154.11,97.57v-.65c.83,.13,1.76,.23,2.67,.23,1.66,0,2.48-.58,2.48-2.39v-10.23h2v9.83c0,2.84-1.76,3.54-3.96,3.54-1.19,0-2.23-.14-3.19-.34Z"/><path class="j" d="M193.53,91.22l-1.82,1.94v4.75h-1.98v-13.27h1.98v7.37l6.93-7.37h1.08l-4.86,5.16,5.09,8.11h-2.21l-4.21-6.69Z"/><path class="j" d="M229.17,84.64h2.02v12.55h6.18v.72h-8.19v-13.27Z"/><path class="j" d="M259.94,86.8v11.11h-.77v-13.27h2.03l4.61,11.41,4.59-11.41h1.98v13.27h-1.98v-11.2l-4.48,11.2h-1.46l-4.52-11.11Z"/><path class="j" d="M44.36,128.44c0-4.37,2.23-6.79,5.98-6.79s5.98,2.43,5.98,6.79-2.21,6.76-5.98,6.76-5.98-2.41-5.98-6.76Zm9.85-.04c0-4.35-1.17-6.04-3.87-6.04s-3.87,1.73-3.87,6.04,1.17,6.08,3.87,6.08,3.87-1.73,3.87-6.08Z"/><path class="j" d="M83.21,121.52h4.83c2.97,0,4.92,1.24,4.92,4.08s-1.8,4.24-4.81,4.24h-2.92v4.94h-2.02v-13.27Zm4.57,7.62c2.25,0,3.1-.97,3.1-3.5s-.85-3.4-3.21-3.4h-2.45v6.9h2.56Z"/><path class="j" d="M122.54,135.3c-.52,.11-1.08,.16-1.67,.16-3.82,0-5.96-2.41-5.96-6.76s2.14-6.79,5.96-6.79,5.98,2.43,5.98,6.79c0,2.82-.9,4.84-2.59,5.9l1.42,2.44h-2.12l-1.01-1.74Zm-.41-.7l-1.24-2.17h2.12l.67,1.17c.74-.93,1.06-2.53,1.06-4.92,0-4.42-1.1-6.04-3.87-6.04s-3.85,1.65-3.85,6.04,1.1,6.08,3.85,6.08c.47,0,.88-.05,1.26-.14Z"/><path class="j" d="M159.03,130.38h-2.65v5.32h-1.96v-13.27h4.7c3.17,0,5.2,1.17,5.2,3.92,0,2.08-1.21,3.36-3.22,3.83l3.28,5.52h-2.16l-3.19-5.32Zm.05-.74c2.3,0,3.21-.86,3.21-3.29s-.9-3.2-3.31-3.2h-2.59v6.49h2.7Z"/><path class="j" d="M190.42,134.53v-.63c1.17,.13,2.43,.23,3.82,.23,2.63,0,4.07-.75,4.07-2.57,0-.83-.23-1.33-.79-1.71-.54-.41-1.44-.65-2.77-1.06-1.31-.38-2.36-.74-3.06-1.28-.72-.56-1.1-1.33-1.1-2.48,0-2.82,2.29-3.63,5.17-3.63,.9,0,2.27,.13,3.49,.34v.65c-1.03-.13-2.18-.23-3.21-.23-2.21,0-3.6,.59-3.6,2.32,0,.79,.23,1.28,.74,1.62,.56,.38,1.44,.68,2.72,1.04,1.35,.38,2.36,.72,3.08,1.24,.79,.59,1.19,1.38,1.19,2.62,0,2.88-2.68,3.88-5.6,3.88-1.31,0-2.79-.12-4.14-.36Z"/><path class="j" d="M227.52,122.05h10.79v.72h-4.39v12.55h-2v-12.55h-4.39v-.72Z"/><path class="j" d="M260.39,130.4v-8.23h2.03v8.25c0,3,.85,4.24,3.58,4.24,2.92,0,3.87-1.21,3.87-4.24v-8.25h.85v8.2c0,3.74-1.42,5.21-5.1,5.21s-5.24-1.6-5.24-5.18Z"/><path class="j" d="M8.8,156.91h2.09l4.34,11.76,4.27-11.76h.83l-4.83,13.27h-1.82l-4.88-13.27Z"/><path class="j" d="M48.12,159.51l-3.22,10.66h-1.76l-3.24-13.27h2.05l2.74,11.22,3.44-11.22h1.24l3.38,11.18,2.74-11.18h.79l-3.24,13.27h-1.67l-3.24-10.66Z"/><path class="j" d="M84.84,164.47l-4.05,5.7h-.97l4.55-6.43-4.38-6.83h2.3l3.49,5.46,3.85-5.46h.97l-4.36,6.2,4.54,7.06h-2.3l-3.65-5.7Z"/><path class="j" d="M118.99,165.18l-4.74-8.27h2.27l4.09,7.23,4.11-7.23h.94l-4.65,8.2v5.07h-2.02v-5Z"/><path class="j" d="M153.37,156.91h9.62v.72l-7.54,11.83h7.69v.72h-10.03v-.72l7.53-11.83h-7.26v-.72Z"/><path class="j" d="M128.79,58.9c0-1.69,1.12-2.61,3.38-2.61h2.34v-1.01c0-1.67-.94-1.89-2.48-1.91-.74,0-1.53,.07-2.18,.18v-.61c.77-.14,1.67-.27,2.67-.27,2.45,0,3.85,.61,3.85,2.73v5.97h-1.84v-.52c-.56,.36-1.42,.65-2.52,.65-2.2,0-3.22-1.06-3.22-2.61Zm5.73,1.56v-3.59h-1.8c-1.55,0-1.96,.54-1.96,1.94s.43,1.98,1.91,1.98c.83,0,1.55-.2,1.85-.32Z"/><path class="j" d="M194.33,166.36c0-1.69,1.12-2.61,3.38-2.61h2.34v-1.01c0-1.67-.94-1.89-2.48-1.91-.74,0-1.53,.07-2.18,.18v-.61c.77-.14,1.67-.27,2.67-.27,2.45,0,3.85,.61,3.85,2.73v5.97h-1.84v-.52c-.56,.36-1.42,.65-2.52,.65-2.2,0-3.22-1.06-3.22-2.61Zm5.73,1.56v-3.59h-1.8c-1.55,0-1.96,.54-1.96,1.94s.43,1.98,1.91,1.98c.83,0,1.55-.2,1.85-.32Z"/><path class="j" d="M166.67,60.92v.47h-1.87v-13.27h1.93v5.11c.7-.41,1.53-.58,2.43-.58,2.3,0,3.96,1.47,3.96,4.42s-1.64,4.44-3.96,4.44c-.92,0-1.78-.16-2.48-.59Zm4.45-3.81c0-2.68-.9-3.67-2.72-3.67-.58,0-1.15,.11-1.67,.29v6.72c.52,.18,1.12,.29,1.67,.29,1.82,0,2.72-.93,2.72-3.63Z"/><path class="j" d="M199.71,56.71c0-2.97,1.66-4.4,4.7-4.4,.85,0,1.6,.09,2.25,.22v.61c-.56-.09-1.13-.14-1.71-.14-2.29,0-3.24,.9-3.24,3.7s.95,3.7,3.24,3.7c.58,0,1.21-.05,1.76-.13v.59c-.65,.13-1.46,.23-2.3,.23-3.06,0-4.7-1.47-4.7-4.39Z"/><path class="j" d="M238.59,57.09c0-2.95,1.66-4.44,3.96-4.44,.88,0,1.71,.16,2.41,.58v-5.11h1.94v13.27h-1.87v-.49c-.72,.45-1.57,.61-2.49,.61-2.34,0-3.96-1.51-3.96-4.42Zm6.37,3.36v-6.72c-.52-.18-1.1-.29-1.66-.29-1.78,0-2.72,.92-2.72,3.63s.94,3.67,2.72,3.67c.56,0,1.13-.11,1.66-.29Z"/><path class="j" d="M274.17,56.8c0-2.95,1.76-4.42,4.05-4.42,2.41,0,3.96,1.38,3.96,4.3,0,.14-.02,.32-.04,.5h-6.03c.05,2.71,.88,3.33,3.29,3.33,.77,0,1.51-.05,2.27-.2v.61c-.81,.2-1.66,.29-2.72,.29-2.81,0-4.79-.95-4.79-4.4Zm1.94-.27h4.2c-.07-2.44-.45-3.47-2.07-3.47s-2.09,1.02-2.12,3.47Z"/><path class="j" d="M21.74,89.3h1.31v-2.03c0-2.07,1.17-2.71,2.56-2.71,.61,0,1.01,.05,1.44,.16v.58c-.27-.02-.47-.05-.77-.05-.92,0-1.3,.36-1.3,1.58v2.48h2.05v.65h-2.05v7.96h-1.93v-7.96h-1.31v-.65Z"/><path class="j" d="M63.15,98.39v-1.11c-.72,.43-1.55,.58-2.43,.58-2.34,0-3.94-1.46-3.94-4.39s1.64-4.4,3.94-4.4c.92,0,1.78,.16,2.5,.63v-.5h1.84v8.72c0,2.95-1.98,3.58-4.68,3.58-.96,0-1.73-.11-2.43-.25v-.61c.72,.11,1.42,.16,2.16,.16,1.91,0,3.04-.32,3.04-2.39Zm0-1.58v-6.67c-.52-.18-1.1-.29-1.67-.29-1.78,0-2.7,.86-2.7,3.58s.94,3.67,2.7,3.67c.56,0,1.15-.13,1.67-.29Z"/><path class="j" d="M94.82,84.53h1.94v5.3c.61-.43,1.64-.77,2.74-.77,2.02,0,3.28,.84,3.28,3.16v5.57h-1.94v-5.57c0-1.67-.58-2.3-2.21-2.3-.72,0-1.28,.14-1.85,.32v7.55h-1.94v-13.27Z"/><path class="j" d="M129.58,85.5h1.94v1.96h-1.94v-1.96Zm0,3.58h1.94v8.61h-1.94v-8.61Z"/><path class="j" d="M163.73,99.64v-.59c.29,.04,.47,.04,.77,.04,.92,0,1.3-.32,1.3-1.55v-10.01h1.95v9.56c0,2.07-1.17,2.71-2.58,2.71-.61,0-1.01-.05-1.44-.16Zm2.07-15.69h1.95v1.96h-1.95v-1.96Z"/><path class="j" d="M206.16,93.92l-1.35,1.44v2.55h-1.91v-13.27h1.91v9.71l4.7-5.05h1.01l-3.04,3.25,3.38,5.36h-2.18l-2.52-3.99Z"/><path class="j" d="M239.44,84.64h1.94v13.27h-1.94v-13.27Z"/><path class="j" d="M284.9,92.34c0-1.67-.36-2.3-1.87-2.3-.77,0-1.46,.27-2.04,.52,.18,.47,.27,1.04,.27,1.78v5.57h-1.93v-5.57c0-1.67-.22-2.3-2-2.3-.63,0-1.15,.14-1.66,.32v7.55h-1.94v-8.61h1.89v.7c.56-.49,1.53-.83,2.58-.83,1.3,0,2.14,.3,2.61,1.04,.86-.68,1.96-1.04,3.08-1.04,1.89,0,2.95,.86,2.95,3.16v5.57h-1.95v-5.57Z"/><path class="j" d="M8.97,124.52v10.53h-.81v-13.27h1.21l7.96,10.25v-10.25h.81v13.27h-1.08l-8.08-10.53Z"/><path class="j" d="M22.52,126.17h1.87v.65c.63-.43,1.69-.77,2.81-.77,2.02,0,3.28,.84,3.28,3.16v5.57h-1.94v-5.57c0-1.67-.58-2.3-2.21-2.3-.72,0-1.28,.14-1.85,.32v7.55h-1.94v-8.61Z"/><path class="j" d="M57.48,130.9c0-2.7,1.57-4.44,4.3-4.44s4.3,1.74,4.3,4.44-1.57,4.42-4.3,4.42-4.3-1.69-4.3-4.42Zm6.61,0c0-2.48-.65-3.76-2.3-3.76s-2.3,1.28-2.3,3.76,.65,3.76,2.3,3.76,2.3-1.29,2.3-3.76Z"/><path class="j" d="M95.87,134.89v4.03h-1.93v-12.21h1.87v.49c.7-.45,1.57-.61,2.48-.61,2.3,0,3.96,1.49,3.96,4.44s-1.64,4.42-3.96,4.42c-.9,0-1.73-.14-2.43-.56Zm4.39-3.88c0-2.68-.9-3.63-2.72-3.63-.58,0-1.15,.11-1.67,.29v6.72c.52,.18,1.12,.29,1.67,.29,1.82,0,2.72-.95,2.72-3.67Z"/><path class="j" d="M128.92,130.76c0-2.95,1.66-4.44,3.96-4.44,.92,0,1.76,.16,2.49,.63v-.5h1.87v12.21h-1.94v-4.03c-.7,.41-1.53,.56-2.41,.56-2.34,0-3.96-1.51-3.96-4.42Zm6.37,3.36v-6.72c-.52-.18-1.1-.29-1.66-.29-1.78,0-2.72,.92-2.72,3.63s.94,3.67,2.72,3.67c.56,0,1.13-.11,1.66-.29Z"/><path class="j" d="M168.74,127.09h1.82v.65c.7-.47,1.53-.67,2.49-.67,.29,0,.67,.04,.97,.09v.67c-.29-.02-.61-.02-.9-.02-.79,0-1.58,.09-2.43,.36v7.53h-1.94v-8.61Z"/><path class="j" d="M203.42,135.27v-.61c.88,.11,1.64,.16,2.72,.16,1.89,0,2.65-.47,2.66-1.4,.02-.47-.16-.74-.52-.97-.41-.23-1.01-.4-1.82-.61-.9-.23-1.69-.45-2.2-.9-.45-.39-.7-.9-.7-1.67,0-2.07,1.87-2.54,3.48-2.54,1.01,0,1.91,.11,2.63,.25v.59c-.72-.11-1.5-.16-2.21-.16-1.53,0-2.18,.41-2.2,1.28,0,.52,.2,.81,.56,1.02,.4,.23,.95,.4,1.66,.56,.95,.25,1.71,.49,2.23,.84,.54,.4,.81,.92,.79,1.8-.02,1.96-1.89,2.61-4.09,2.61-1.21,0-2.07-.11-2.99-.25Z"/><path class="j" d="M238.9,126.44h1.31v-2.5h1.95v2.5h2.27v.65h-2.27v5.97c0,1.04,.4,1.37,1.37,1.37,.34,0,.58-.04,.9-.11v.61c-.5,.13-.97,.18-1.69,.18-1.44,0-2.52-.47-2.52-2.43v-5.59h-1.31v-.65Z"/><path class="j" d="M273.7,132.53v-5.57h1.94v5.57c0,1.65,.59,2.28,2.23,2.28,.72,0,1.28-.13,1.85-.32v-7.53h1.94v8.61h-1.87v-.65c-.63,.43-1.69,.77-2.81,.77-2.02,0-3.29-.84-3.29-3.16Z"/><path class="j" d="M20.5,161.56h2.07l2.93,7.19,2.88-7.19h.85l-3.48,8.61h-1.69l-3.57-8.61Z"/><path class="j" d="M63.49,163.85l-2.32,6.33h-1.53l-2.65-8.61h2l2.07,6.76,2.45-6.76h1.15l2.45,6.74,2.05-6.74h.81l-2.65,8.61h-1.53l-2.3-6.33Z"/><path class="j" d="M95.93,166.72l-2.63,3.45h-1.04l3.19-4.15-3.06-4.46h2.16l2.23,3.27,2.5-3.27h1.04l-3.06,3.99,3.17,4.62h-2.12l-2.38-3.45Z"/><path class="j" d="M127.01,161.56h2.14l3.01,6.49,2.75-6.49h.83l-5.17,12.21h-.85l1.44-3.38-.02,.02-4.14-8.84Z"/><path class="j" d="M166.64,161.56h6.88v.65l-4.86,7.3h5.01v.67h-7.2v-.67l4.84-7.3h-4.66v-.65Z"/><path class="j" d="M232.32,165.66v-5.3h2.03v5.36c0,1.85,.79,2.57,2.32,2.57,1.66,0,2.29-.7,2.29-2.57v-5.36h.79v5.34c0,2.48-1.19,3.4-3.73,3.4s-3.71-1.08-3.71-3.43Z"/><g class="m"><path class="l" d="M266.81,166.65c0-1.83,1.15-3.25,2.79-4.08-.81-.93-1.17-1.91-1.17-2.73-.02-1.83,1.58-3.04,4.27-3.04,.94,0,1.89,.11,2.83,.32v.63c-.74-.13-1.51-.2-2.27-.2-2.11,0-2.81,.81-2.81,2,0,.97,.38,1.6,1.13,2.55l3.57,4.13,1.91-3.58h.85l-2.25,4.17,2.88,3.34h-2.38l-1.46-1.67c-.86,1.22-2.16,1.85-3.73,1.85-2.38,0-4.16-1.26-4.16-3.7Zm7.4,1.28l-4.18-4.85c-.99,.65-1.51,1.56-1.51,3.11,0,1.98,1.13,3.24,2.84,3.24,1.26,0,2.14-.45,2.84-1.49Z"/></g><g><path class="l" d="M7.73,200.51l-1.93,5.27h-1.28l-2.21-7.17h1.67l1.73,5.63,2.04-5.63h.96l2.04,5.61,1.71-5.61h.67l-2.2,7.17h-1.28l-1.92-5.27Z"/><path class="l" d="M18.9,200.51l-1.93,5.27h-1.28l-2.21-7.17h1.67l1.73,5.63,2.04-5.63h.96l2.04,5.61,1.71-5.61h.67l-2.2,7.17h-1.28l-1.92-5.27Z"/><path class="l" d="M30.07,200.51l-1.93,5.27h-1.28l-2.21-7.17h1.67l1.73,5.63,2.04-5.63h.96l2.04,5.61,1.71-5.61h.67l-2.2,7.17h-1.28l-1.92-5.27Z"/></g><g><path class="l" d="M49.72,203.95h1.54v1.83h-1.54v-1.83Z"/><path class="l" d="M56.4,203.95h1.7l-1.68,3.58h-.48l.46-3.58Z"/></g><g><path class="l" d="M85.96,199.42h1.54v1.81h-1.54v-1.81Zm0,4.55h1.54v1.81h-1.54v-1.81Z"/><path class="l" d="M92.86,203.97h1.68l-1.63,3.56h-.48l.43-3.56Zm0-4.55h1.54v1.81h-1.54v-1.81Z"/></g><path class="l" d="M122.27,203.83h1.65v1.95h-1.65v-1.95Zm3.58,0h1.65v1.95h-1.65v-1.95Zm3.59,0h1.65v1.95h-1.65v-1.95Z"/><g><path class="l" d="M158.57,202.95l.61-4.95h.56l.61,4.95v2.83h-1.78v-2.83Zm.1-8.96h1.55v2.01h-1.55v-2.01Z"/><path class="l" d="M166.28,196.82v-2.83h1.78v2.83l-.61,4.95h-.56l-.61-4.95Zm.13,6.95h1.55v2.01h-1.55v-2.01Z"/></g><g><path class="l" d="M196.03,199.18h-.45c-1.76,0-2.82,.78-2.82,3s1.04,3.02,3.09,3.02c.75,0,1.49-.06,2.22-.21v.58c-.91,.19-1.82,.3-2.72,.3-2.32,0-4.47-.72-4.47-3.69s2.13-3.64,4.45-3.64h.69v.64Zm.37-3.18h-1.57v-2.01h1.57v2.01Z"/><path class="l" d="M204.54,200.59h.46c1.76,0,2.82-.78,2.82-3s-1.04-3.02-3.1-3.02c-.74,0-1.49,.06-2.21,.19v-.56c.9-.19,1.81-.3,2.72-.3,2.3,0,4.47,.72,4.47,3.69s-2.13,3.64-4.45,3.64h-.71v-.64Zm-.35,3.18h1.55v2.01h-1.55v-2.01Z"/></g><g><path class="l" d="M228.36,200.7c0-3.08,1.14-5.5,3.12-7.35h.62c-1.22,1.85-1.95,4.2-1.95,7.32s.74,5.5,1.95,7.37h-.62c-1.98-1.84-3.12-4.25-3.12-7.33Z"/><path class="l" d="M237.24,208.03c1.2-1.87,1.95-4.23,1.95-7.37s-.75-5.46-1.95-7.32h.62c1.98,1.85,3.12,4.27,3.12,7.35s-1.14,5.5-3.12,7.33h-.62Z"/></g><g><path class="l" d="M266.22,192.41h3.87v.64h-2.16v13.39h2.14v.64h-3.86v-14.67Z"/><path class="l" d="M274.65,206.45h2.16v-13.42h-2.16v-.62h3.86v14.67h-3.86v-.62Z"/></g><g><path class="l" d="M11.8,242.43c0-.26,.56-4.67,.56-4.67l-1.15-.46v-.45l1.15-.46s-.56-4.41-.56-4.67c0-1.47,.85-2.04,2.21-2.04,.48,0,.91,.06,1.26,.14v.56c-.21-.02-.42-.03-.66-.03-.82,0-1.1,.32-1.1,1.28,0,.14,.59,4.84,.59,4.84l-1.75,.61,1.75,.61s-.59,4.7-.59,4.84c0,.96,.29,1.28,1.1,1.28,.24,0,.45-.02,.66-.03v.56c-.35,.08-.78,.14-1.26,.14-1.36,0-2.21-.58-2.21-2.04Z"/><path class="l" d="M20.15,244.33v-.56c.22,.02,.42,.03,.66,.03,.82,0,1.1-.32,1.1-1.28,0-.14-.59-4.84-.59-4.84l1.75-.61-1.75-.61s.59-4.7,.59-4.84c0-.96-.29-1.28-1.1-1.28-.24,0-.43,.02-.66,.03v-.56c.35-.08,.79-.14,1.26-.14,1.36,0,2.21,.58,2.21,2.04,0,.26-.56,4.67-.56,4.67l1.15,.46v.45l-1.15,.46s.56,4.41,.56,4.67c0,1.47-.85,2.04-2.21,2.04-.48,0-.91-.06-1.26-.14Z"/></g><g><path class="l" d="M41.65,237.5h4.1v.64h-4.1v-.64Z"/><path class="l" d="M50.26,243.47h7.25v.64h-7.25v-.64Z"/><path class="l" d="M58.82,237.5h7.27v.64h-7.27v-.64Z"/></g><g><path class="l" d="M86.03,233.04h.51l-.42,3.82h-1.83l1.73-3.82Z"/><path class="l" d="M91.73,233.04h1.81l-1.73,3.82h-.51l.43-3.82Z"/></g><g><path class="l" d="M120.84,232.97h.5l-.43,3.83h-1.75l1.68-3.83Zm2.54,0h.51l-.43,3.83h-1.74l1.66-3.83Z"/><path class="l" d="M129.08,232.97h1.75l-1.68,3.83h-.5l.43-3.83Zm2.54,0h1.75l-1.67,3.83h-.51l.43-3.83Z"/></g><g><path class="l" d="M156.21,240.23h1.81l-1.73,3.82h-.51l.43-3.82Z"/><path class="l" d="M163.25,240.23h1.75l-1.68,3.83h-.5l.43-3.83Zm2.54,0h1.75l-1.67,3.83h-.51l.43-3.83Z"/></g><g><path class="l" d="M189.25,242.13v-1.07l3.44-2.49v1.44l-2.67,1.95,2.67,1.93v.73l-3.44-2.49Zm3.54,0v-1.07l3.44-2.49v1.44l-2.66,1.95,2.66,1.93v.73l-3.44-2.49Z"/><path class="l" d="M204.87,241.06v1.07l-3.44,2.49v-1.44l2.64-1.95-2.64-1.93v-.73l3.44,2.49Zm3.54,0v1.07l-3.44,2.49v-1.44l2.66-1.95-2.66-1.93v-.73l3.44,2.49Z"/></g><g><path class="l" d="M229.25,241.19v-1.07l3.44-2.49v1.44l-2.67,1.95,2.67,1.93v.73l-3.44-2.49Z"/><path class="l" d="M241.33,240.12v1.07l-3.44,2.49v-1.44l2.64-1.95-2.64-1.93v-.73l3.44,2.49Z"/></g><path class="l" d="M274.25,230.39h.75v5.4h-.75v-5.4Zm0,8.63h.75v5.4h-.75v-5.4Z"/><g><path class="l" d="M11.15,265.84h.79l-5.31,14.03h-.78l5.31-14.03Z"/><path class="l" d="M17.12,265.84h.75v14.03h-.75v-14.03Z"/><path class="l" d="M23.07,265.84h.78l5.31,14.03h-.78l-5.31-14.03Z"/></g><path class="l" d="M53.28,274.65l2.42-2.44-3.38-.61,.38-1.33,3.14,1.53-.51-3.45h1.42l-.48,3.45,3.14-1.53,.38,1.33-3.39,.61,2.42,2.43-1.14,.78-1.63-2.96-1.62,2.97-1.15-.78Z"/><path class="l" d="M124.29,267.4h1.86v-1.57h1.44v1.57h1.86v.54h-1.86v2.73h1.86v.54h-1.86v1.57h-1.44v-1.57h-1.86v-.54h1.86v-2.73h-1.86v-.54Z"/><g><path class="l" d="M158.38,272.32h1.65v1.95h-1.65v-1.95Z"/><path class="l" d="M162.78,271.46h2.58v3.12h-2.58v-3.12Z"/></g><g><path class="l" d="M193.07,266.74h1.79l-.64,3.83h-.53l-.62-3.83Z"/><path class="l" d="M199.96,266.74h1.75l-.62,3.83h-.51l-.61-3.83Zm2.43,0h1.74l-.62,3.83h-.51l-.61-3.83Z"/></g><path class="k" d="M234.04,274.83h-4.98l-2.5,3.69h-.78l7.96-11.79h8.13v.64h-6.04v4.78h5.49v.64h-5.49v5.1h6.15v.64h-7.94v-3.69Zm0-.62v-6.69l-4.55,6.69h4.55Z"/><path class="k" d="M281.04,267.37h-6.05v4.78h5.49v.64h-5.49v5.1h6.16v.64h-10.23c-3.84,0-5.55-2.11-5.55-5.88s1.71-5.91,5.55-5.91h10.12v.64Zm-7.79,10.51v-10.51h-2.1c-2.74,0-3.89,1.34-3.89,5.27s1.15,5.24,3.89,5.24h2.1Z"/><path class="l" d="M87.9,269.97h1.86v-1.9h1.44v1.9h1.86v.54h-1.86v4.5h-1.44v-4.5h-1.86v-.54Z"/><rect class="e" x=".03" y="326.17" width="290.91" height="1.39"/><rect class="e" x=".73" y="362.48" width="290.91" height="1.39"/><rect class="e" x=".73" y="398.78" width="290.91" height="1.39"/><rect class="e" x=".74" y="435.08" width="290.91" height="1.39"/><path class="k" d="M11.57,309.33h1.17v-5.42h4.07c3.81,0,5.55,2.12,5.55,5.91s-1.74,5.88-5.55,5.88h-4.07v-5.74h-1.17v-.64Zm5.03,5.74c2.77,0,3.89-1.37,3.89-5.27s-1.12-5.24-3.89-5.24h-2.1v4.78h2.32v.64h-2.32v5.1h2.1Z"/><path class="k" d="M51.21,303.91h1.79v2.12h2.51c2.62,0,4.35,1.12,4.35,3.55s-1.62,3.74-4.26,3.74h-2.61v2.38h-1.79v-11.79Zm4.07,8.77c1.81,0,2.74-.88,2.74-3.05s-.93-2.97-2.82-2.97h-2.19v6.02h2.27Z"/><path class="k" d="M84.69,309.7l1.31-.32v-6.94h2.02v6.42l2.7-.7v.72l-2.7,.7v5.41h6.18v.72h-8.19v-5.61l-1.31,.32v-.72Z"/><path class="k" d="M122.34,315.7l1.09-1.41c-.93-1.02-1.42-2.52-1.42-4.47,0-3.88,1.98-6.04,5.31-6.04,1.38,0,2.53,.37,3.39,1.09l.74-.96h.74l-1.04,1.36c.96,1.02,1.49,2.56,1.49,4.55,0,3.87-1.97,6.01-5.31,6.01-1.41,0-2.58-.38-3.46-1.12l-.77,.99h-.75Zm1.97-2.56l5.7-7.36c-.56-.94-1.44-1.36-2.69-1.36-2.4,0-3.44,1.53-3.44,5.37,0,1.42,.13,2.52,.43,3.35Zm6.45-3.35c0-1.47-.14-2.59-.46-3.42l-5.71,7.4c.56,.99,1.46,1.42,2.74,1.42,2.4,0,3.44-1.53,3.44-5.4Z"/><path class="k" d="M166.26,310.16h-5.63v5.54h-1.79v-8.47h-1.17v-.62h1.17v-2.7h1.79v2.7h5.63v-2.7h1.79v2.7h1.2v.62h-1.2v8.47h-1.79v-5.54Zm-5.63-.62h5.63v-2.3h-5.63v2.3Z"/><path class="k" d="M193.33,303.91h9.59v.64h-3.91v5.08h2.46v.62h-2.46v5.45h-1.78v-5.45h-2.46v-.62h2.46v-5.08h-3.91v-.64Z"/><path class="k" d="M229.03,303.91h1.79v11.15h5.49v.64h-7.28v-11.79Zm4.53,4.87h1.63v1.74h-1.63v-1.74Z"/><path class="k" d="M276.15,307.3c0-2.17-1.02-2.76-2.77-2.76-1.25,0-2.13,.22-2.88,.51v10.66h-1.78v-11.79h1.78v.75c.77-.56,2.11-.89,3.52-.89,2.38,0,3.91,.99,3.91,3.53v8.64c0,2.52-1.42,3.15-3.2,3.15-.94,0-1.73-.11-2.48-.29v-.58c.62,.1,1.31,.19,2.03,.19,1.23,0,1.87-.5,1.87-2.12v-8.99Z"/><rect x="1.43" y="327.57" width="143.35" height="34.91"/><g><path class="k" d="M13.07,339.41h1.62l4.34,11.79h-1.86l-1.31-3.59h-5.06l-1.3,3.59h-.72l4.29-11.79Zm-2.03,7.56h4.58l-2.3-6.29-2.27,6.29Zm3.06-11.06h1.73l-1.95,2.81h-.56l.78-2.81Z"/><path class="k" d="M26.87,339.41h1.62l4.34,11.79h-1.86l-1.31-3.59h-5.06l-1.3,3.59h-.72l4.29-11.79Zm-2.03,7.56h4.58l-2.3-6.29-2.27,6.29Zm.56-10.53v-.53h1.25v.56c0,1.26,.38,1.66,1.38,1.66s1.36-.4,1.36-1.66v-.56h.66v.53c0,1.68-.77,2.28-2.32,2.28-1.33,0-2.32-.61-2.32-2.28Z"/><path class="k" d="M40.68,339.41h1.62l4.34,11.79h-1.86l-1.31-3.59h-5.06l-1.3,3.59h-.72l4.29-11.79Zm-2.03,7.56h4.58l-2.3-6.29-2.27,6.29Zm2.29-11.06h1.12l1.81,2.81h-1.34l-1.34-2.11-1.36,2.11h-.69l1.81-2.81Z"/><path class="k" d="M54.49,339.41h1.62l4.34,11.79h-1.86l-1.31-3.59h-5.06l-1.3,3.59h-.72l4.29-11.79Zm-2.03,7.56h4.58l-2.3-6.29-2.27,6.29Zm.53-10.3h1.36v1.74h-1.36v-1.74Zm3.28,0h1.38v1.74h-1.38v-1.74Z"/><path class="k" d="M68.3,339.41h1.62l4.34,11.79h-1.86l-1.31-3.59h-5.06l-1.3,3.59h-.72l4.29-11.79Zm-2.03,7.56h4.58l-2.3-6.29-2.27,6.29Zm3.22-8.24h-.58l-1.94-2.81h1.73l.78,2.81Z"/><path class="k" d="M82.11,339.41h1.62l4.34,11.79h-1.86l-1.31-3.59h-5.06l-1.3,3.59h-.72l4.29-11.79Zm-2.03,7.56h4.58l-2.3-6.29-2.27,6.29Zm.54-9.6h4.63v.69h-4.63v-.69Z"/><path class="k" d="M98.92,352.95c0-.77,.54-1.45,1.07-1.79l-1.3-3.56h-5.06l-1.3,3.59h-.72l4.29-11.79h1.62l4.34,11.79h-.91c-.53,.42-.8,.97-.8,1.65,0,.85,.37,1.05,1.28,1.05,.26,0,.48-.03,.66-.06v.46c-.29,.06-.66,.14-1.15,.14-1.17,0-2.02-.35-2.02-1.49Zm-5.04-5.99h4.58l-2.3-6.29-2.27,6.29Z"/><path class="k" d="M109.64,339.61c-.66-.25-.98-.86-.98-1.68,0-1.09,.64-1.82,1.83-1.82s1.84,.73,1.84,1.82c0,.78-.32,1.37-.93,1.65l4.27,11.61h-1.86l-1.31-3.59h-5.06l-1.3,3.59h-.72l4.21-11.58Zm-1.95,7.35h4.58l-2.3-6.29-2.27,6.29Zm4.15-9.01c0-.8-.38-1.34-1.04-1.34-.7,0-1.06,.46-1.06,1.34s.32,1.31,1.06,1.31c.67,0,1.04-.53,1.04-1.31Z"/><path class="k" d="M123.53,339.41h1.62l4.34,11.79h-1.86l-1.31-3.59h-5.06l-1.3,3.59h-.72l4.29-11.79Zm-2.03,7.56h4.58l-2.3-6.29-2.27,6.29Zm2.53-9.25c-.53-.53-.75-.77-1.17-.77s-.67,.21-.69,1.07v.24h-.43c-.02-.11-.03-.21-.03-.32,0-1.2,.42-1.84,1.44-1.82,.67,0,1.01,.22,1.52,.72,.51,.51,.75,.77,1.2,.77,.42,0,.66-.21,.69-1.09,0-.11,0-.14-.02-.27h.43c.02,.13,.03,.22,.03,.35,0,1.2-.42,1.84-1.44,1.82-.66,0-1.04-.19-1.54-.7Z"/></g><rect x="146.18" y="327.57" width="71.35" height="34.91"/><g><path class="k" d="M150.65,345.32c0-4.19,2.06-6.01,5.76-6.01,.9,0,1.84,.11,2.75,.3v.58c-.74-.13-1.5-.21-2.26-.21-3.3,0-4.39,1.37-4.39,5.3s1.09,5.34,4.39,5.34c.8,0,1.5-.1,2.26-.21v.58c-.93,.19-1.83,.3-2.75,.3-3.7,0-5.76-1.79-5.76-5.97Zm5.71-9.41h1.73l-1.95,2.81h-.56l.78-2.81Z"/><path class="k" d="M164.11,345.32c0-4.19,2.06-6.01,5.76-6.01,.9,0,1.84,.11,2.75,.3v.58c-.74-.13-1.5-.21-2.26-.21-3.3,0-4.39,1.37-4.39,5.3s1.09,5.34,4.39,5.34c.8,0,1.5-.1,2.26-.21v.58c-.93,.19-1.83,.3-2.75,.3-3.7,0-5.76-1.79-5.76-5.97Zm2.82-9.41h1.36l1.36,2.16,1.39-2.16h.69l-1.81,2.81h-1.18l-1.81-2.81Z"/><path class="k" d="M183.66,351.29l-.3,2.73h-1.58l1.26-2.73c-3.52-.1-5.47-1.88-5.47-5.97s2.06-6.01,5.76-6.01c.9,0,1.84,.11,2.75,.3v.58c-.74-.13-1.5-.21-2.26-.21-3.3,0-4.39,1.37-4.39,5.3s1.09,5.34,4.39,5.34c.8,0,1.5-.1,2.26-.21v.58c-.82,.18-1.6,.27-2.42,.3Z"/><path class="k" d="M191.02,345.32c0-4.19,2.06-6.01,5.76-6.01,.9,0,1.84,.11,2.75,.3v.58c-.74-.13-1.5-.21-2.26-.21-3.3,0-4.39,1.37-4.39,5.3s1.09,5.34,4.39,5.34c.8,0,1.5-.1,2.26-.21v.58c-.93,.19-1.83,.3-2.75,.3-3.7,0-5.76-1.79-5.76-5.97Zm4.48-9.41h1.12l1.81,2.81h-1.34l-1.34-2.11-1.36,2.11h-.69l1.81-2.81Z"/><path class="k" d="M204.48,345.32c0-4.19,2.06-6.01,5.76-6.01,.9,0,1.84,.11,2.75,.3v.58c-.74-.13-1.5-.21-2.26-.21-3.3,0-4.39,1.37-4.39,5.3s1.09,5.34,4.39,5.34c.8,0,1.5-.1,2.26-.21v.58c-.93,.19-1.83,.3-2.75,.3-3.7,0-5.76-1.79-5.76-5.97Zm4.39-8.66h1.73v1.74h-1.73v-1.74Z"/></g><g class="m"><path class="h" d="M224.16,339.41h4.07c3.81,0,5.55,2.12,5.55,5.91s-1.74,5.88-5.55,5.88h-4.07v-11.79Zm3.86,11.15c2.77,0,3.89-1.37,3.89-5.27s-1.12-5.24-3.89-5.24h-2.1v10.51h2.1Zm-1.68-14.65h1.36l1.36,2.16,1.39-2.16h.69l-1.81,2.81h-1.18l-1.81-2.81Z"/><path class="h" d="M238.33,344.82h1.17v-5.42h4.07c3.81,0,5.55,2.12,5.55,5.91s-1.74,5.88-5.55,5.88h-4.07v-5.74h-1.17v-.64Zm5.03,5.74c2.77,0,3.89-1.37,3.89-5.27s-1.12-5.24-3.89-5.24h-2.1v4.78h2.32v.64h-2.32v5.1h2.1Z"/></g><path class="h" d="M268.72,339.41h7.83v.64h-6.04v4.78h5.49v.64h-5.49v5.1h6.15v.64h-7.94v-11.79Zm4.42-3.5h1.73l-1.95,2.81h-.56l.78-2.81Z"/><rect x="1.43" y="363.87" width="143" height="34.91"/><g><path class="h" d="M12.76,375.62h7.83v.64h-6.04v4.78h5.49v.64h-5.49v5.1h6.15v.64h-7.94v-11.79Zm1.74-2.97v-.53h1.25v.56c0,1.26,.38,1.66,1.38,1.66s1.36-.4,1.36-1.66v-.56h.66v.53c0,1.68-.77,2.28-2.32,2.28-1.33,0-2.32-.61-2.32-2.28Z"/><path class="h" d="M26.01,375.62h7.83v.64h-6.04v4.78h5.49v.64h-5.49v5.1h6.15v.64h-7.94v-11.79Zm1.74-2.97v-.53h1.25v.56c0,1.26,.38,1.66,1.38,1.66s1.36-.4,1.36-1.66v-.56h.66v.53c0,1.68-.77,2.28-2.32,2.28-1.33,0-2.32-.61-2.32-2.28Z"/><path class="h" d="M39.26,375.62h7.83v.64h-6.04v4.78h5.49v.64h-5.49v5.1h6.15v.64h-7.94v-11.79Zm1.63-3.5h1.36l1.36,2.16,1.39-2.16h.69l-1.81,2.81h-1.18l-1.81-2.81Z"/><path class="h" d="M52.51,375.62h7.83v.64h-6.04v4.78h5.49v.64h-5.49v5.1h6.15v.64h-7.94v-11.79Zm3.47-3.5h1.12l1.81,2.81h-1.34l-1.34-2.11-1.36,2.11h-.69l1.81-2.81Z"/><path class="h" d="M65.76,375.62h7.83v.64h-6.04v4.78h5.49v.64h-5.49v5.1h6.15v.64h-7.94v-11.79Zm1.74-2.75h1.36v1.74h-1.36v-1.74Zm3.28,0h1.38v1.74h-1.38v-1.74Z"/><path class="h" d="M79,375.62h7.83v.64h-6.04v4.78h5.49v.64h-5.49v5.1h6.15v.64h-7.94v-11.79Zm3.2-2.75h1.73v1.74h-1.73v-1.74Z"/><path class="h" d="M92.25,375.62h7.83v.64h-6.04v4.78h5.49v.64h-5.49v5.1h6.15v.64h-7.94v-11.79Zm4.9-.69h-.58l-1.94-2.81h1.73l.78,2.81Z"/><path class="h" d="M105.5,375.62h7.83v.64h-6.04v4.78h5.49v.64h-5.49v5.1h6.15v.64h-7.94v-11.79Zm1.76-2.04h4.63v.69h-4.63v-.69Z"/><path class="h" d="M118.75,375.62h7.83v.64h-6.04v4.78h5.49v.64h-5.49v5.1h6.15v.64h-1.18c-.46,.42-.74,.97-.74,1.65,0,.85,.35,1.05,1.26,1.05,.27,0,.48-.03,.66-.06v.46c-.29,.06-.66,.14-1.15,.14-1.17,0-2.02-.34-2.02-1.44,0-.77,.62-1.44,1.17-1.81h-5.94v-11.79Z"/></g><rect x="147.74" y="363.87" width="69.79" height="34.91"/><g><path class="h" d="M154.6,381.43c0-4.31,2.27-6.01,6.05-6.01,1.04,0,2.24,.11,3.28,.3v.58c-.9-.11-1.89-.21-2.77-.21-3.71,0-4.69,1.28-4.69,5.3s1.04,5.34,4.48,5.34c.54,0,1.09-.03,1.6-.08v-5.08h-2.58v-.64h4.31v6.23c-1.14,.18-2.42,.24-3.62,.24-3.81,0-6.07-1.57-6.07-5.97Zm3.11-8.88v-.53h1.25v.56c0,1.26,.38,1.66,1.38,1.66s1.36-.4,1.36-1.66v-.56h.66v.53c0,1.68-.77,2.28-2.32,2.28-1.33,0-2.32-.61-2.32-2.28Z"/><path class="h" d="M169.41,381.43c0-4.31,2.27-6.01,6.05-6.01,1.04,0,2.24,.11,3.28,.3v.58c-.9-.11-1.89-.21-2.77-.21-3.71,0-4.69,1.28-4.69,5.3s1.04,5.34,4.48,5.34c.54,0,1.09-.03,1.6-.08v-5.08h-2.58v-.64h4.31v6.23c-1.14,.18-2.42,.24-3.62,.24-3.81,0-6.07-1.57-6.07-5.97Zm5.01-9.41h1.12l1.81,2.81h-1.34l-1.34-2.11-1.36,2.11h-.69l1.81-2.81Z"/><path class="h" d="M184.23,381.43c0-4.31,2.27-6.01,6.05-6.01,1.04,0,2.24,.11,3.28,.3v.58c-.9-.11-1.89-.21-2.77-.21-3.71,0-4.69,1.28-4.69,5.3s1.04,5.34,4.48,5.34c.54,0,1.09-.03,1.6-.08v-5.08h-2.58v-.64h4.31v6.23c-1.14,.18-2.42,.24-3.62,.24-3.81,0-6.07-1.57-6.07-5.97Zm4.88,6.61h1.67l-1.54,2.65h-.56l.43-2.65Z"/><path class="h" d="M199.05,381.43c0-4.31,2.27-6.01,6.05-6.01,1.04,0,2.24,.11,3.28,.3v.58c-.9-.11-1.89-.21-2.77-.21-3.71,0-4.69,1.28-4.69,5.3s1.04,5.34,4.48,5.34c.54,0,1.09-.03,1.6-.08v-5.08h-2.58v-.64h4.31v6.23c-1.14,.18-2.42,.24-3.62,.24-3.81,0-6.07-1.57-6.07-5.97Zm4.35-8.66h1.73v1.74h-1.73v-1.74Z"/></g><path class="h" d="M237.95,381.57h-5.63v5.74h-1.79v-11.79h1.79v5.42h5.63v-5.42h1.78v11.79h-1.78v-5.74Zm-3.31-9.55h1.12l1.81,2.81h-1.34l-1.34-2.11-1.36,2.11h-.69l1.81-2.81Z"/><path class="h" d="M267.44,375.52h1.79v11.79h-1.79v-11.79Zm3.3,11.58v-.58c.69,.11,1.44,.21,2.21,.21,1.36,0,2.05-.51,2.05-2.12v-9.09h1.78v8.74c0,2.52-1.5,3.15-3.38,3.15-.98,0-1.84-.13-2.66-.3Z"/><rect x="1.43" y="400.17" width="71.33" height="34.91"/><g><path class="h" d="M3.78,413.89h1.79v11.79h-1.79v-11.79Zm1.2-3.5h1.73l-1.95,2.81h-.56l.78-2.81Z"/><path class="h" d="M10.3,410.91v-.53h1.25v.56c0,1.26,.38,1.66,1.38,1.66s1.36-.4,1.36-1.66v-.56h.66v.53c0,1.68-.77,2.28-2.32,2.28-1.33,0-2.32-.61-2.32-2.28Zm1.39,2.97h1.79v11.79h-1.79v-11.79Z"/><path class="h" d="M19.95,410.39h1.12l1.81,2.81h-1.34l-1.34-2.11-1.36,2.11h-.69l1.81-2.81Zm-.34,3.5h1.79v11.79h-1.79v-11.79Z"/><path class="h" d="M26.11,411.14h1.36v1.74h-1.36v-1.74Zm1.42,2.75h1.79v11.79h-1.79v-11.79Zm1.86-2.75h1.38v1.74h-1.38v-1.74Z"/><path class="h" d="M35.46,413.89h1.79v11.79h-1.79v-11.79Zm.03-2.75h1.73v1.74h-1.73v-1.74Z"/><path class="h" d="M44.77,413.2h-.58l-1.94-2.81h1.73l.79,2.81Zm-1.39,.69h1.79v11.79h-1.79v-11.79Z"/><path class="h" d="M49.89,411.84h4.63v.69h-4.63v-.69Zm1.41,2.04h1.79v11.79h-1.79v-11.79Z"/><path class="h" d="M58.33,427.43c0-.75,.48-1.42,.88-1.77v-11.77h1.79v11.79h-.83c-.35,.42-.59,.97-.59,1.58,0,.88,.35,1.12,1.3,1.12,.29,0,.51-.03,.7-.06v.46c-.3,.06-.7,.14-1.25,.14-1.14,0-2-.35-2-1.49Z"/><path class="h" d="M67.71,412.19c-.53-.53-.75-.77-1.17-.77s-.67,.21-.69,1.07v.24h-.43c-.02-.11-.03-.21-.03-.32,0-1.2,.42-1.84,1.44-1.82,.67,0,1.01,.22,1.52,.72,.51,.51,.75,.77,1.2,.77,.42,0,.66-.21,.69-1.09,0-.11,0-.14-.02-.27h.43c.02,.13,.03,.22,.03,.35,0,1.2-.42,1.84-1.44,1.82-.66,0-1.04-.19-1.54-.7Zm-.58,1.69h1.79v11.79h-1.79v-11.79Z"/></g><path class="h" d="M85.19,425.47v-.58c.74,.11,1.57,.21,2.37,.21,1.47,0,2.21-.51,2.21-2.12v-9.09h1.78v8.74c0,2.52-1.57,3.15-3.52,3.15-1.06,0-1.99-.13-2.83-.3Zm4.93-15.08h1.12l1.81,2.81h-1.34l-1.34-2.11-1.36,2.11h-.69l1.81-2.81Z"/><path class="h" d="M126.26,417.78l-1.62,1.73v4.22h-1.76v-11.79h1.76v6.55l6.16-6.55h.96l-4.32,4.58,4.53,7.21h-1.97l-3.75-5.94Zm.29,6.68h1.67l-1.54,2.65h-.56l.43-2.65Z"/><g><path class="h" d="M148.11,411.93h1.79v11.15h5.49v.64h-7.28v-11.79Zm1.22-3.5h1.73l-1.95,2.81h-.56l.78-2.81Z"/><path class="h" d="M160.05,411.93h1.79v11.15h5.49v.64h-7.28v-11.79Zm4.51,0h1.62l-1.09,2.94h-.53v-2.94Z"/><path class="h" d="M172.19,411.93h1.79v11.15h5.49v.64h-7.28v-11.79Zm3.04,12.53h1.66l-1.54,2.65h-.56l.43-2.65Z"/></g><rect x="183.68" y="400.17" width="69.09" height="34.91"/><g><path class="h" d="M193.47,414.36v9.36h-.72v-11.79h1.07l7.07,9.11v-9.11h.72v11.79h-.96l-7.19-9.36Zm4.31-5.93h1.73l-1.95,2.81h-.56l.78-2.81Z"/><path class="h" d="M208.21,414.36v9.36h-.72v-11.79h1.07l7.07,9.11v-9.11h.72v11.79h-.96l-7.19-9.36Zm1.5-5.93h1.36l1.36,2.16,1.39-2.16h.69l-1.81,2.81h-1.18l-1.81-2.81Z"/><path class="h" d="M222.94,414.36v9.36h-.72v-11.79h1.07l7.07,9.11v-9.11h.72v11.79h-.96l-7.19-9.36Zm2.8,10.1h1.67l-1.54,2.65h-.56l.43-2.65Z"/><path class="h" d="M237.68,414.36v9.36h-.72v-11.79h1.07l7.07,9.11v-9.11h.72v11.79h-.96l-7.19-9.36Zm3.43-4.12c-.53-.53-.75-.77-1.17-.77s-.67,.21-.69,1.07v.24h-.43c-.02-.11-.03-.21-.03-.32,0-1.2,.42-1.84,1.44-1.82,.67,0,1.01,.22,1.52,.72,.51,.51,.75,.77,1.2,.77,.42,0,.66-.21,.69-1.09,0-.11,0-.14-.02-.27h.43c.02,.13,.03,.22,.03,.35,0,1.2-.42,1.84-1.44,1.82-.66,0-1.04-.19-1.54-.7Z"/></g><rect class="e" x=".74" y="471.39" width="290.91" height="1.39"/><rect class="e" x=".74" y="507.69" width="290.91" height="1.39"/><rect class="e" x=".03" y="543.3" width="290.91" height="1.39"/><path class="h" d="M267.06,417.85c0-3.88,1.98-6.04,5.31-6.04s5.31,2.16,5.31,6.04-1.97,6.01-5.31,6.01-5.31-2.14-5.31-6.01Zm8.76-.03c0-3.87-1.04-5.37-3.44-5.37s-3.44,1.53-3.44,5.37,1.04,5.4,3.44,5.4,3.44-1.53,3.44-5.4Zm-3.49-9.38h1.73l-1.95,2.81h-.56l.78-2.81Z"/><rect x="1.43" y="436.48" width="107.69" height="34.91"/><g><path class="h" d="M3.12,455.45c0-3.88,1.98-6.04,5.31-6.04s5.31,2.16,5.31,6.04-1.97,6.01-5.31,6.01-5.31-2.14-5.31-6.01Zm8.76-.03c0-3.87-1.04-5.37-3.44-5.37s-3.44,1.53-3.44,5.37,1.04,5.4,3.44,5.4,3.44-1.53,3.44-5.4Zm-5.78-8.85v-.53h1.25v.56c0,1.26,.38,1.66,1.38,1.66s1.36-.4,1.36-1.66v-.56h.66v.53c0,1.68-.77,2.28-2.32,2.28-1.33,0-2.32-.61-2.32-2.28Z"/><path class="h" d="M18.76,455.45c0-3.88,1.98-6.04,5.31-6.04s5.31,2.16,5.31,6.04-1.97,6.01-5.31,6.01-5.31-2.14-5.31-6.01Zm8.76-.03c0-3.87-1.04-5.37-3.44-5.37s-3.44,1.53-3.44,5.37,1.04,5.4,3.44,5.4,3.44-1.53,3.44-5.4Zm-3.99-9.38h1.12l1.81,2.81h-1.34l-1.34-2.11-1.36,2.11h-.69l1.81-2.81Z"/><path class="h" d="M34.39,455.45c0-3.88,1.98-6.04,5.31-6.04s5.31,2.16,5.31,6.04-1.97,6.01-5.31,6.01-5.31-2.14-5.31-6.01Zm8.76-.03c0-3.87-1.04-5.37-3.44-5.37s-3.44,1.53-3.44,5.37,1.04,5.4,3.44,5.4,3.44-1.53,3.44-5.4Zm-5.78-8.63h1.36v1.74h-1.36v-1.74Zm3.28,0h1.38v1.74h-1.38v-1.74Z"/><path class="h" d="M50.02,455.45c0-3.88,1.98-6.04,5.31-6.04s5.31,2.16,5.31,6.04-1.97,6.01-5.31,6.01-5.31-2.14-5.31-6.01Zm8.76-.03c0-3.87-1.04-5.37-3.44-5.37s-3.44,1.53-3.44,5.37,1.04,5.4,3.44,5.4,3.44-1.53,3.44-5.4Zm-2.61-6.57h-.58l-1.94-2.81h1.73l.78,2.81Z"/><path class="h" d="M65.65,455.45c0-3.88,1.98-6.04,5.31-6.04s5.31,2.16,5.31,6.04-1.97,6.01-5.31,6.01-5.31-2.14-5.31-6.01Zm8.76-.03c0-3.87-1.04-5.37-3.44-5.37s-3.44,1.53-3.44,5.37,1.04,5.4,3.44,5.4,3.44-1.53,3.44-5.4Zm-4.53-9.38h1.58l-1.79,2.81h-.56l.77-2.81Zm2.46,0h1.58l-1.79,2.81h-.58l.78-2.81Z"/><path class="h" d="M81.28,455.45c0-3.88,1.98-6.04,5.31-6.04s5.31,2.16,5.31,6.04-1.97,6.01-5.31,6.01-5.31-2.14-5.31-6.01Zm8.76-.03c0-3.87-1.04-5.37-3.44-5.37s-3.44,1.53-3.44,5.37,1.04,5.4,3.44,5.4,3.44-1.53,3.44-5.4Zm-5.76-7.92h4.63v.69h-4.63v-.69Z"/><path class="h" d="M96.91,455.45c0-3.88,1.98-6.04,5.31-6.04s5.31,2.16,5.31,6.04-1.97,6.01-5.31,6.01-5.31-2.14-5.31-6.01Zm8.76-.03c0-3.87-1.04-5.37-3.44-5.37s-3.44,1.53-3.44,5.37,1.04,5.4,3.44,5.4,3.44-1.53,3.44-5.4Zm-3.78-7.57c-.53-.53-.75-.77-1.17-.77s-.67,.21-.69,1.07v.24h-.43c-.02-.11-.03-.21-.03-.32,0-1.2,.42-1.84,1.44-1.82,.67,0,1.01,.22,1.52,.72,.51,.51,.75,.77,1.2,.77,.42,0,.66-.21,.69-1.09,0-.11,0-.14-.02-.27h.43c.02,.13,.03,.22,.03,.35,0,1.2-.42,1.84-1.44,1.82-.66,0-1.04-.19-1.54-.7Z"/></g><g><path class="h" d="M260.55,448.23h9.59v.64h-3.91v11.15h-1.78v-11.15h-3.91v-.64Zm2.37-3.5h1.36l1.36,2.16,1.39-2.16h.69l-1.81,2.81h-1.18l-1.81-2.81Z"/><path class="h" d="M273.67,448.23h9.59v.64h-3.91v11.15h-1.78v-11.15h-3.91v-.64Zm4,12.53h1.66l-1.54,2.65h-.56l.43-2.65Z"/></g><rect x="110.94" y="436.48" width="70.23" height="34.91"/><g><path class="h" d="M132.1,455.29h-2.35v4.73h-1.74v-11.79h4.18c2.82,0,4.63,1.04,4.63,3.48,0,1.85-1.07,2.99-2.87,3.4l2.91,4.9h-1.92l-2.83-4.73Zm.05-.66c2.05,0,2.85-.77,2.85-2.92s-.8-2.84-2.95-2.84h-2.3v5.77h2.4Zm-.1-9.91h1.73l-1.95,2.81h-.56l.78-2.81Z"/><path class="h" d="M146.39,455.29h-2.35v4.73h-1.74v-11.79h4.18c2.82,0,4.63,1.04,4.63,3.48,0,1.85-1.07,2.99-2.87,3.4l2.91,4.9h-1.92l-2.83-4.73Zm-2.4-10.56h1.36l1.36,2.16,1.39-2.16h.69l-1.81,2.81h-1.18l-1.81-2.81Zm2.45,9.91c2.05,0,2.85-.77,2.85-2.92s-.8-2.84-2.95-2.84h-2.3v5.77h2.4Z"/><path class="h" d="M160.68,455.29h-2.35v4.73h-1.74v-11.79h4.18c2.82,0,4.63,1.04,4.63,3.48,0,1.85-1.07,2.99-2.87,3.4l2.91,4.9h-1.92l-2.83-4.73Zm.05-.66c2.05,0,2.85-.77,2.85-2.92s-.8-2.84-2.95-2.84h-2.3v5.77h2.4Zm-.69,6.12h1.67l-1.54,2.65h-.56l.43-2.65Z"/></g><rect x="182.56" y="436.48" width="70.21" height="34.91"/><g><path class="h" d="M186.68,459.79v-.56c1.04,.11,2.16,.21,3.39,.21,2.34,0,3.62-.67,3.62-2.28,0-.74-.21-1.18-.7-1.52-.48-.37-1.28-.58-2.46-.94-1.17-.33-2.1-.65-2.72-1.13-.64-.5-.98-1.18-.98-2.21,0-2.51,2.03-3.23,4.59-3.23,.8,0,2.02,.11,3.11,.3v.58c-.91-.11-1.94-.21-2.85-.21-1.97,0-3.2,.53-3.2,2.06,0,.7,.21,1.13,.66,1.44,.5,.34,1.28,.61,2.42,.93,1.2,.34,2.1,.64,2.74,1.1,.71,.53,1.06,1.23,1.06,2.33,0,2.56-2.38,3.45-4.98,3.45-1.17,0-2.48-.11-3.68-.32Zm4.43-15.07h1.73l-1.95,2.81h-.56l.78-2.81Z"/><path class="h" d="M200.07,459.79v-.56c1.04,.11,2.16,.21,3.39,.21,2.34,0,3.62-.67,3.62-2.28,0-.74-.21-1.18-.7-1.52-.48-.37-1.28-.58-2.46-.94-1.17-.33-2.1-.65-2.72-1.13-.64-.5-.98-1.18-.98-2.21,0-2.51,2.03-3.23,4.59-3.23,.8,0,2.02,.11,3.11,.3v.58c-.91-.11-1.94-.21-2.85-.21-1.97,0-3.2,.53-3.2,2.06,0,.7,.21,1.13,.66,1.44,.5,.34,1.28,.61,2.42,.93,1.2,.34,2.1,.64,2.74,1.1,.71,.53,1.06,1.23,1.06,2.33,0,2.56-2.38,3.45-4.98,3.45-1.17,0-2.48-.11-3.68-.32Zm1.79-15.07h1.36l1.36,2.16,1.39-2.16h.69l-1.81,2.81h-1.18l-1.81-2.81Z"/><path class="h" d="M213.46,459.79v-.56c1.04,.11,2.16,.21,3.39,.21,2.34,0,3.62-.67,3.62-2.28,0-.74-.21-1.18-.7-1.52-.48-.37-1.28-.58-2.46-.94-1.17-.33-2.1-.65-2.72-1.13-.64-.5-.98-1.18-.98-2.21,0-2.51,2.03-3.23,4.59-3.23,.8,0,2.02,.11,3.11,.3v.58c-.91-.11-1.94-.21-2.85-.21-1.97,0-3.2,.53-3.2,2.06,0,.7,.21,1.13,.66,1.44,.5,.34,1.28,.61,2.42,.93,1.2,.34,2.1,.64,2.74,1.1,.71,.53,1.06,1.23,1.06,2.33,0,2.22-1.78,3.18-3.94,3.4l-.32,2.78h-1.58l1.28-2.75c-.14,.02-.27,.02-.42,.02-1.17,0-2.48-.11-3.68-.32Z"/><path class="h" d="M226.85,459.79v-.56c1.04,.11,2.16,.21,3.39,.21,2.34,0,3.62-.67,3.62-2.28,0-.74-.21-1.18-.7-1.52-.48-.37-1.28-.58-2.46-.94-1.17-.33-2.1-.65-2.72-1.13-.64-.5-.98-1.18-.98-2.21,0-2.51,2.03-3.23,4.59-3.23,.8,0,2.02,.11,3.11,.3v.58c-.91-.11-1.94-.21-2.85-.21-1.97,0-3.2,.53-3.2,2.06,0,.7,.21,1.13,.66,1.44,.5,.34,1.28,.61,2.42,.93,1.2,.34,2.1,.64,2.74,1.1,.71,.53,1.06,1.23,1.06,2.33,0,2.56-2.38,3.45-4.98,3.45-1.17,0-2.48-.11-3.68-.32Zm3.63-15.07h1.12l1.81,2.81h-1.34l-1.34-2.11-1.36,2.11h-.69l1.81-2.81Z"/><path class="h" d="M240.24,459.79v-.56c1.04,.11,2.16,.21,3.39,.21,2.34,0,3.62-.67,3.62-2.28,0-.74-.21-1.18-.7-1.52-.48-.37-1.28-.58-2.46-.94-1.17-.33-2.1-.65-2.72-1.13-.64-.5-.98-1.18-.98-2.21,0-2.51,2.03-3.23,4.59-3.23,.8,0,2.02,.11,3.11,.3v.58c-.91-.11-1.94-.21-2.85-.21-1.97,0-3.2,.53-3.2,2.06,0,.7,.21,1.13,.66,1.44,.5,.34,1.28,.61,2.42,.93,1.2,.34,2.1,.64,2.74,1.1,.71,.53,1.06,1.23,1.06,2.33,0,2.56-2.38,3.45-4.98,3.45-1.17,0-2.48-.11-3.68-.32Zm3.55,.96h1.66l-1.54,2.65h-.56l.43-2.65Z"/></g><rect x="1.96" y="472.78" width="179.21" height="34.91"/><g><path class="h" d="M17.17,492.44v-7.32h1.81v7.33c0,2.67,.75,3.77,3.18,3.77,2.59,0,3.44-1.07,3.44-3.77v-7.33h.75v7.29c0,3.32-1.26,4.63-4.53,4.63s-4.66-1.42-4.66-4.6Zm5.41-10.82h1.73l-1.95,2.81h-.56l.79-2.81Z"/><path class="h" d="M32.09,492.44v-7.32h1.81v7.33c0,2.67,.75,3.77,3.18,3.77,2.59,0,3.44-1.07,3.44-3.77v-7.33h.75v7.29c0,3.32-1.26,4.63-4.53,4.63s-4.66-1.42-4.66-4.6Zm2.66-10.29v-.53h1.25v.56c0,1.26,.38,1.66,1.38,1.66s1.36-.4,1.36-1.66v-.56h.66v.53c0,1.68-.77,2.28-2.32,2.28-1.33,0-2.32-.61-2.32-2.28Z"/><path class="h" d="M47.02,492.44v-7.32h1.81v7.33c0,2.67,.75,3.77,3.18,3.77,2.59,0,3.44-1.07,3.44-3.77v-7.33h.75v7.29c0,3.32-1.26,4.63-4.53,4.63s-4.66-1.42-4.66-4.6Zm4.43-10.82h1.12l1.81,2.81h-1.34l-1.34-2.11-1.36,2.11h-.69l1.81-2.81Z"/><path class="h" d="M61.95,492.44v-7.32h1.81v7.33c0,2.67,.75,3.77,3.18,3.77,2.59,0,3.44-1.07,3.44-3.77v-7.33h.75v7.29c0,3.32-1.26,4.63-4.53,4.63s-4.66-1.42-4.66-4.6Zm2.62-10.06h1.36v1.74h-1.36v-1.74Zm3.28,0h1.38v1.74h-1.38v-1.74Z"/><path class="h" d="M76.88,492.44v-7.32h1.81v7.33c0,2.67,.75,3.77,3.18,3.77,2.59,0,3.44-1.07,3.44-3.77v-7.33h.75v7.29c0,3.32-1.26,4.63-4.53,4.63s-4.66-1.42-4.66-4.6Zm5.84-8h-.58l-1.94-2.81h1.73l.78,2.81Z"/><path class="h" d="M91.8,492.44v-7.32h1.81v7.33c0,2.67,.75,3.77,3.18,3.77,2.59,0,3.44-1.07,3.44-3.77v-7.33h.75v7.29c0,3.32-1.26,4.63-4.53,4.63s-4.66-1.42-4.66-4.6Zm3.99-10.82h1.58l-1.79,2.81h-.56l.77-2.81Zm2.46,0h1.58l-1.79,2.81h-.58l.78-2.81Z"/><path class="h" d="M106.73,492.44v-7.32h1.81v7.33c0,2.67,.75,3.77,3.18,3.77,2.59,0,3.44-1.07,3.44-3.77v-7.33h.75v7.29c0,3.32-1.26,4.63-4.53,4.63s-4.66-1.42-4.66-4.6Zm2.71-9.36h4.62v.69h-4.62v-.69Z"/><path class="h" d="M125.23,498.67c0-.67,.4-1.26,.86-1.63-2.99-.06-4.43-1.5-4.43-4.6v-7.32h1.81v7.33c0,2.67,.75,3.77,3.18,3.77,2.59,0,3.44-1.07,3.44-3.77v-7.33h.75v7.29c0,3.04-1.06,4.39-3.7,4.6-.46,.4-.69,.93-.69,1.55,0,.85,.37,1.05,1.28,1.05,.26,0,.48-.03,.66-.06v.46c-.29,.06-.66,.14-1.15,.14-1.17,0-2.02-.35-2.02-1.49Z"/><path class="h" d="M136.59,492.44v-7.32h1.81v7.33c0,2.67,.75,3.77,3.18,3.77,2.59,0,3.44-1.07,3.44-3.77v-7.33h.75v7.29c0,3.32-1.26,4.63-4.53,4.63s-4.66-1.42-4.66-4.6Zm3.14-9.83c0-1.09,.64-1.82,1.83-1.82s1.84,.74,1.84,1.82-.62,1.82-1.84,1.82-1.83-.72-1.83-1.82Zm3.17,.02c0-.8-.38-1.34-1.04-1.34-.7,0-1.06,.46-1.06,1.34s.32,1.31,1.06,1.31c.67,0,1.04-.53,1.04-1.31Z"/><path class="h" d="M151.52,492.44v-7.32h1.81v7.33c0,2.67,.75,3.77,3.18,3.77,2.59,0,3.44-1.07,3.44-3.77v-7.33h.75v7.29c0,3.32-1.26,4.63-4.53,4.63s-4.66-1.42-4.66-4.6Zm4.58-9.01c-.53-.53-.75-.77-1.17-.77s-.67,.21-.69,1.07v.24h-.43c-.02-.11-.03-.21-.03-.32,0-1.2,.42-1.84,1.44-1.82,.67,0,1.01,.22,1.52,.72,.51,.51,.75,.77,1.2,.77,.42,0,.66-.21,.69-1.09,0-.11,0-.14-.02-.27h.43c.02,.13,.03,.22,.03,.35,0,1.2-.42,1.84-1.44,1.82-.66,0-1.04-.19-1.54-.7Z"/></g><rect x="182.98" y="472.78" width="107.09" height="34.91"/><g><path class="h" d="M209.43,487.44l-2.87,9.47h-1.57l-2.88-11.79h1.83l2.43,9.97,3.06-9.97h1.1l3.01,9.94,2.43-9.94h.71l-2.88,11.79h-1.49l-2.88-9.47Zm.85-5.82h1.73l-1.95,2.81h-.56l.78-2.81Z"/><path class="h" d="M227.86,487.44l-2.87,9.47h-1.57l-2.88-11.79h1.83l2.43,9.97,3.06-9.97h1.1l3.01,9.94,2.43-9.94h.71l-2.88,11.79h-1.49l-2.88-9.47Zm-.02-5.82h1.12l1.81,2.81h-1.34l-1.34-2.11-1.36,2.11h-.69l1.81-2.81Z"/><path class="h" d="M246.29,487.44l-2.87,9.47h-1.57l-2.88-11.79h1.83l2.43,9.97,3.06-9.97h1.1l3.01,9.94,2.43-9.94h.71l-2.88,11.79h-1.49l-2.88-9.47Zm-2-5.06h1.36v1.74h-1.36v-1.74Zm3.28,0h1.38v1.74h-1.38v-1.74Z"/><path class="h" d="M264.73,487.44l-2.87,9.47h-1.57l-2.88-11.79h1.83l2.43,9.97,3.06-9.97h1.1l3.01,9.94,2.43-9.94h.71l-2.88,11.79h-1.49l-2.88-9.47Zm.88-3h-.58l-1.94-2.81h1.73l.78,2.81Z"/></g><rect x="1.43" y="509.08" width="71.33" height="34.27"/><g><path class="h" d="M15.66,529.3l-4.21-7.35h2.02l3.63,6.42,3.65-6.42h.83l-4.13,7.29v4.5h-1.79v-4.44Zm1.74-10.85h1.73l-1.95,2.81h-.56l.78-2.81Z"/><path class="h" d="M29.32,529.3l-4.21-7.35h2.02l3.63,6.42,3.65-6.42h.83l-4.13,7.29v4.5h-1.79v-4.44Zm.74-10.85h1.12l1.81,2.81h-1.34l-1.34-2.11-1.36,2.11h-.69l1.81-2.81Z"/><path class="h" d="M42.98,529.3l-4.21-7.35h2.02l3.63,6.42,3.65-6.42h.83l-4.13,7.29v4.5h-1.79v-4.44Zm-1.01-10.1h1.36v1.74h-1.36v-1.74Zm3.28,0h1.38v1.74h-1.38v-1.74Z"/><path class="h" d="M56.65,529.3l-4.21-7.35h2.02l3.63,6.42,3.65-6.42h.83l-4.13,7.29v4.5h-1.79v-4.44Zm2.05-8.04h-.58l-1.94-2.81h1.73l.78,2.81Z"/></g><rect x="74.16" y="509.08" width="70.63" height="34.27"/><g><path class="h" d="M91.92,521.95h8.55v.64l-6.71,10.51h6.83v.64h-8.92v-.64l6.69-10.51h-6.45v-.64Zm4.47-3.5h1.73l-1.95,2.81h-.56l.78-2.81Z"/><path class="h" d="M105.45,521.95h8.55v.64l-6.71,10.51h6.83v.64h-8.92v-.64l6.69-10.51h-6.45v-.64Zm1.92-3.5h1.36l1.36,2.16,1.39-2.16h.69l-1.81,2.81h-1.18l-1.81-2.81Z"/><path class="h" d="M118.99,521.95h8.55v.64l-6.71,10.51h6.83v.64h-8.92v-.64l6.69-10.51h-6.45v-.64Zm3.46-2.75h1.73v1.74h-1.73v-1.74Z"/></g><g><path class="i" d="M154.52,532.64c-.69,.69-1.71,1.21-2.96,1.21-1.87,0-2.93-.9-2.93-2.32,0-1.5,.99-2.32,3.01-2.32h2.08v-.89c0-1.49-.83-1.68-2.21-1.69-.66,0-1.36,.06-1.94,.16v-.54c.69-.13,1.44-.24,2.32-.24,1.42,0,2.45,.27,2.93,1.07,.62-.72,1.52-1.1,2.51-1.1,2.03,0,3.38,1.23,3.38,3.82,0,.13,0,.29-.03,.45h-5.36c.05,2.41,.78,2.96,2.93,2.96,.69,0,1.34-.05,2.02-.14v.54c-.72,.13-1.47,.22-2.42,.22-1.39,0-2.59-.29-3.33-1.18Zm-.27-.38c-.34-.58-.53-1.34-.53-2.35v-.18h-1.6c-1.38,0-1.75,.48-1.75,1.73s.4,1.74,1.68,1.74c.82,0,1.62-.42,2.19-.94Zm1.07-2.59h3.73c-.05-2.17-.4-3.08-1.84-3.08s-1.86,.91-1.89,3.08Z"/><path class="i" d="M172.15,532.44c-.59,.91-1.58,1.42-2.9,1.42-2.42,0-3.78-1.5-3.78-3.93s1.38-3.95,3.78-3.95c1.3,0,2.31,.54,2.9,1.45,.59-.97,1.58-1.45,2.74-1.45,2.11,0,3.49,1.23,3.49,3.82,0,.13-.02,.29-.03,.45h-5.36c.05,2.41,.77,2.96,2.93,2.96,.67,0,1.34-.05,2-.14v.54c-.7,.13-1.47,.22-2.4,.22-1.49,0-2.69-.34-3.36-1.39Zm-.8-2.51c0-2.2-.58-3.34-2.05-3.34s-2.05,1.13-2.05,3.34,.58,3.34,2.05,3.34,2.05-1.15,2.05-3.34Zm1.63-.26h3.71c-.05-2.17-.4-3.08-1.84-3.08s-1.84,.91-1.87,3.08Z"/></g><path class="i" d="M199.89,524.73h1.73v7.65h-1.73v-7.65Z"/><path class="i" d="M235.82,524.13l1.65-.19c-.45-.99-1.17-1.41-2.26-1.41-.45,0-.91,.03-1.38,.13v-.54c.46-.16,1.04-.24,1.67-.24,1.58,0,2.71,.64,3.41,1.9l1.38-.16v.62l-1.1,.13c.4,1.04,.59,2.38,.58,4.06-.02,4.12-1.6,5.43-3.99,5.43-2.13,0-3.83-1.18-3.83-3.95,0-2.56,1.5-3.87,3.39-3.87,1.36,0,2.32,.54,2.67,1.61-.02-1.33-.13-2.35-.35-3.12l-1.84,.21v-.62Zm2.14,5.86c0-2.41-.82-3.28-2.14-3.28-1.44,0-2.11,.86-2.11,3.28,0,2.22,.67,3.27,2.11,3.27s2.14-1.05,2.14-3.27Z"/><path class="i" d="M270.15,533.36v3.58h-1.71v-14.99h1.71v4.54c.62-.37,1.36-.51,2.16-.51,2.05,0,3.52,1.33,3.52,3.95s-1.46,3.93-3.52,3.93c-.8,0-1.54-.13-2.16-.5Zm3.91-3.45c0-2.38-.8-3.23-2.42-3.23-.51,0-1.02,.1-1.49,.26v5.97c.46,.16,.99,.26,1.49,.26,1.62,0,2.42-.85,2.42-3.26Z"/><rect class="e" x=".03" y="578.9" width="290.91" height="1.39"/><rect class="e" x=".03" y="614.51" width="290.91" height="1.39"/><rect class="e" x=".03" y="650.81" width="290.91" height="1.39"/><g><path class="i" d="M11.62,563.28l1.14-.3v-5.61h1.73v5.13l1.15-.32v.64l-1.15,.32v6.02h-1.73v-5.54l-1.14,.32v-.65Z"/><path class="i" d="M19.53,563.28l1.14-.3v-5.61h1.73v5.13l1.15-.32v.64l-1.15,.32v6.02h-1.73v-5.54l-1.14,.32v-.65Z"/></g><path class="i" d="M50.44,568.28c-.69-.69-1.04-1.69-1.04-2.94,0-2.4,1.39-3.95,3.83-3.95,.9,0,1.65,.21,2.24,.61l.4-.5h.75l-.69,.86c.72,.69,1.12,1.71,1.12,2.97,0,2.41-1.39,3.93-3.83,3.93-.94,0-1.71-.22-2.32-.62l-.42,.51h-.75l.71-.88Zm.88-1.1l3.51-4.36c-.34-.54-.86-.81-1.6-.81-1.52,0-2.1,1.13-2.1,3.34,0,.74,.05,1.34,.19,1.84Zm4-1.84c0-.78-.08-1.42-.24-1.93l-3.51,4.39c.34,.59,.86,.88,1.65,.88,1.52,0,2.1-1.15,2.1-3.34Z"/><path class="i" d="M87.48,559.42h.85v-2.04h1.73v2.04h2.03v.59h-2.03v2.08c.54-.38,1.46-.69,2.43-.69,1.79,0,2.91,.75,2.91,2.81v4.95h-1.73v-4.95c0-1.49-.51-2.04-1.97-2.04-.64,0-1.14,.13-1.65,.29v6.71h-1.73v-9.15h-.85v-.59Z"/><path class="i" d="M125.96,559.53h2.05v-2.04h1.73v2.04h.83v.59h-.83v9.15h-1.67v-.43c-.64,.4-1.39,.54-2.21,.54-2.08,0-3.52-1.34-3.52-3.93s1.47-3.95,3.52-3.95c.78,0,1.52,.14,2.15,.51v-1.9h-2.05v-.59Zm2.05,8.91v-5.97c-.46-.16-.98-.26-1.47-.26-1.58,0-2.42,.81-2.42,3.23s.83,3.26,2.42,3.26c.5,0,1.01-.1,1.47-.26Z"/><path class="i" d="M158.8,561.51h1.17v-2.22h1.73v2.22h2.02v.58h-2.02v2.73h2.02v.59h-2.02v1.98c0,.93,.35,1.21,1.22,1.21,.3,0,.51-.03,.8-.1v.54c-.45,.11-.87,.16-1.5,.16-1.28,0-2.24-.42-2.24-2.16v-1.65h-1.17v-.59h1.17v-2.73h-1.17v-.58Z"/><path class="i" d="M197.65,560.87c0-2.4,1.52-3.56,3.89-3.56s3.86,.82,3.86,2.81c0,1.29-.72,2.04-1.97,2.38,1.55,.34,2.62,1.28,2.62,3.26,0,2.43-1.49,3.48-3.65,3.48-.69,0-1.17-.1-1.66-.22v-.51c.37,.08,.72,.11,1.1,.11,1.58,0,2.45-.58,2.45-2.83,0-2.44-1.09-2.94-2.8-2.94h-.75v-.59h.62c1.67,0,2.37-.4,2.37-2.09s-.88-2.24-2.21-2.24-2.14,.58-2.14,2.67v8.56h-1.73v-8.29Z"/><g><path class="i" d="M231.49,557.48h1.73v11.79h-1.73v-11.79Zm2.58,6.33h1.47v1.81h-1.47v-1.81Z"/><path class="i" d="M240.02,557.48h1.73v11.79h-1.73v-11.79Zm2.58,6.33h1.47v1.81h-1.47v-1.81Z"/></g><path class="i" d="M276.39,570.27c0,1.84-1.04,2.41-2.27,2.41-.54,0-.91-.05-1.28-.14v-.53c.24,.03,.4,.05,.67,.05,.82,0,1.15-.29,1.15-1.37v-6.25c0-1.49-.51-2.04-1.97-2.04-.64,0-1.14,.13-1.65,.29v6.71h-1.73v-7.65h1.67v.58c.56-.38,1.5-.69,2.5-.69,1.79,0,2.91,.75,2.91,2.81v5.83Z"/><rect x="1.85" y="580.3" width="215.68" height="34.21"/><g><path class="i" d="M6.9,602.75c0-1.5,.99-2.32,3.01-2.32h2.08v-.89c0-1.49-.83-1.68-2.21-1.69-.66,0-1.36,.06-1.94,.16v-.54c.69-.13,1.49-.24,2.37-.24,2.18,0,3.43,.54,3.43,2.43v5.3h-1.63v-.46c-.5,.32-1.26,.58-2.24,.58-1.95,0-2.86-.94-2.86-2.32Zm5.09,1.39v-3.2h-1.6c-1.38,0-1.75,.48-1.75,1.73s.38,1.76,1.7,1.76c.74,0,1.38-.18,1.65-.29Zm-1.1-10.77h1.73l-1.95,2.81h-.56l.78-2.81Z"/><path class="i" d="M18.51,602.75c0-1.5,.99-2.32,3.01-2.32h2.08v-.89c0-1.49-.83-1.68-2.21-1.69-.66,0-1.36,.06-1.94,.16v-.54c.69-.13,1.49-.24,2.37-.24,2.18,0,3.43,.54,3.43,2.43v5.3h-1.63v-.46c-.5,.32-1.26,.58-2.24,.58-1.95,0-2.87-.94-2.87-2.32Zm1.36-8.85v-.53h1.25v.56c0,1.26,.38,1.66,1.38,1.66s1.36-.4,1.36-1.66v-.56h.66v.53c0,1.68-.77,2.29-2.32,2.29-1.33,0-2.32-.61-2.32-2.29Zm3.73,10.24v-3.2h-1.6c-1.38,0-1.75,.48-1.75,1.73s.38,1.76,1.7,1.76c.74,0,1.38-.18,1.65-.29Z"/><path class="i" d="M30.13,602.75c0-1.5,.99-2.32,3.01-2.32h2.08v-.89c0-1.49-.83-1.68-2.21-1.69-.66,0-1.36,.06-1.94,.16v-.54c.69-.13,1.49-.24,2.37-.24,2.18,0,3.43,.54,3.43,2.43v5.3h-1.63v-.46c-.5,.32-1.26,.58-2.24,.58-1.95,0-2.87-.94-2.87-2.32Zm3.14-9.38h1.12l1.81,2.81h-1.34l-1.34-2.11-1.36,2.11h-.69l1.81-2.81Zm1.95,10.77v-3.2h-1.6c-1.38,0-1.75,.48-1.75,1.73s.38,1.76,1.7,1.76c.74,0,1.38-.18,1.65-.29Z"/><path class="i" d="M41.74,602.75c0-1.5,.99-2.32,3.01-2.32h2.08v-.89c0-1.49-.83-1.68-2.21-1.69-.66,0-1.36,.06-1.94,.16v-.54c.69-.13,1.49-.24,2.37-.24,2.18,0,3.43,.54,3.43,2.43v5.3h-1.63v-.46c-.5,.32-1.26,.58-2.24,.58-1.95,0-2.86-.94-2.86-2.32Zm1.33-8.63h1.36v1.74h-1.36v-1.74Zm3.76,10.02v-3.2h-1.6c-1.38,0-1.75,.48-1.75,1.73s.38,1.76,1.7,1.76c.74,0,1.38-.18,1.65-.29Zm-.48-10.02h1.38v1.74h-1.38v-1.74Z"/><path class="i" d="M53.36,602.75c0-1.5,.99-2.32,3.01-2.32h2.08v-.89c0-1.49-.83-1.68-2.21-1.69-.66,0-1.36,.06-1.94,.16v-.54c.69-.13,1.49-.24,2.37-.24,2.18,0,3.43,.54,3.43,2.43v5.3h-1.63v-.46c-.5,.32-1.26,.58-2.24,.58-1.95,0-2.86-.94-2.86-2.32Zm4.18-6.57h-.58l-1.94-2.81h1.73l.78,2.81Zm.91,7.96v-3.2h-1.6c-1.38,0-1.75,.48-1.75,1.73s.38,1.76,1.7,1.76c.74,0,1.38-.18,1.65-.29Z"/><path class="i" d="M64.97,602.75c0-1.5,.99-2.32,3.01-2.32h2.08v-.89c0-1.49-.83-1.68-2.21-1.69-.66,0-1.36,.06-1.94,.16v-.54c.69-.13,1.49-.24,2.37-.24,2.18,0,3.43,.54,3.43,2.43v5.3h-1.63v-.46c-.5,.32-1.26,.58-2.24,.58-1.95,0-2.87-.94-2.87-2.32Zm1.3-7.92h4.63v.69h-4.63v-.69Zm3.79,9.31v-3.2h-1.6c-1.38,0-1.75,.48-1.75,1.73s.38,1.76,1.7,1.76c.74,0,1.38-.18,1.65-.29Z"/><path class="i" d="M80.61,606.72c0-.77,.54-1.45,1.09-1.79v-.43c-.5,.32-1.26,.58-2.24,.58-1.95,0-2.87-.94-2.87-2.32,0-1.5,.99-2.32,3.01-2.32h2.08v-.89c0-1.49-.83-1.68-2.21-1.69-.66,0-1.36,.06-1.94,.16v-.54c.69-.13,1.49-.24,2.37-.24,2.18,0,3.43,.54,3.43,2.43v5.3h-.69c-.53,.42-.8,.97-.8,1.65,0,.85,.37,1.05,1.28,1.05,.26,0,.48-.03,.66-.06v.46c-.29,.06-.66,.14-1.15,.14-1.17,0-2.02-.35-2.02-1.49Zm1.07-2.57v-3.2h-1.6c-1.38,0-1.75,.48-1.75,1.73s.38,1.76,1.7,1.76c.74,0,1.38-.18,1.65-.29Z"/><path class="i" d="M88.21,602.75c0-1.5,.99-2.32,3.01-2.32h2.08v-.89c0-1.49-.83-1.68-2.21-1.69-.66,0-1.36,.06-1.94,.16v-.54c.69-.13,1.49-.24,2.37-.24,2.18,0,3.43,.54,3.43,2.43v5.3h-1.63v-.46c-.5,.32-1.26,.58-2.24,.58-1.95,0-2.86-.94-2.86-2.32Zm1.74-8.39c0-1.09,.64-1.82,1.83-1.82s1.84,.73,1.84,1.82-.62,1.82-1.84,1.82-1.83-.72-1.83-1.82Zm3.35,9.78v-3.2h-1.6c-1.38,0-1.75,.48-1.75,1.73s.38,1.76,1.7,1.76c.74,0,1.38-.18,1.65-.29Zm-.18-9.76c0-.8-.38-1.34-1.04-1.34-.7,0-1.06,.46-1.06,1.34s.32,1.31,1.06,1.31c.67,0,1.04-.53,1.04-1.31Z"/><path class="i" d="M99.82,602.75c0-1.5,.99-2.32,3.01-2.32h2.08v-.89c0-1.49-.83-1.68-2.21-1.69-.66,0-1.36,.06-1.94,.16v-.54c.69-.13,1.49-.24,2.37-.24,2.18,0,3.43,.54,3.43,2.43v5.3h-1.63v-.46c-.5,.32-1.26,.58-2.24,.58-1.95,0-2.86-.94-2.86-2.32Zm3.33-7.57c-.53-.53-.75-.77-1.17-.77s-.67,.21-.69,1.07v.24h-.43c-.02-.11-.03-.21-.03-.32,0-1.2,.42-1.84,1.44-1.82,.67,0,1.01,.22,1.52,.72,.51,.51,.75,.77,1.2,.77,.42,0,.66-.21,.69-1.09,0-.11,0-.14-.02-.27h.43c.02,.13,.03,.22,.03,.35,0,1.2-.42,1.84-1.44,1.82-.66,0-1.04-.19-1.54-.7Zm1.76,8.96v-3.2h-1.6c-1.38,0-1.75,.48-1.75,1.73s.38,1.76,1.7,1.76c.74,0,1.38-.18,1.65-.29Z"/><path class="i" d="M111.44,602.75c0-1.5,.99-2.32,3.01-2.32h2.08v-.89c0-1.49-.83-1.68-2.21-1.69-.66,0-1.36,.06-1.94,.16v-.54c.69-.13,1.49-.24,2.37-.24,2.18,0,3.43,.54,3.43,2.43v5.3h-1.63v-.46c-.5,.32-1.26,.58-2.24,.58-1.95,0-2.87-.94-2.87-2.32Zm5.09,1.39v-3.2h-1.6c-1.38,0-1.75,.48-1.75,1.73s.38,1.76,1.7,1.76c.74,0,1.38-.18,1.65-.29Zm-1.1-10.77h1.73l-1.95,2.81h-.56l.78-2.81Z"/><path class="i" d="M123.05,602.75c0-1.5,.99-2.32,3.01-2.32h2.08v-.89c0-1.49-.83-1.68-2.21-1.69-.66,0-1.36,.06-1.94,.16v-.54c.69-.13,1.49-.24,2.37-.24,2.18,0,3.43,.54,3.43,2.43v5.3h-1.63v-.46c-.5,.32-1.26,.58-2.24,.58-1.95,0-2.87-.94-2.87-2.32Zm1.36-8.85v-.53h1.25v.56c0,1.26,.38,1.66,1.38,1.66s1.36-.4,1.36-1.66v-.56h.66v.53c0,1.68-.77,2.29-2.32,2.29-1.33,0-2.32-.61-2.32-2.29Zm3.73,10.24v-3.2h-1.6c-1.38,0-1.75,.48-1.75,1.73s.38,1.76,1.7,1.76c.74,0,1.38-.18,1.65-.29Z"/><path class="i" d="M134.67,602.75c0-1.5,.99-2.32,3.01-2.32h2.08v-.89c0-1.49-.83-1.68-2.21-1.69-.66,0-1.36,.06-1.94,.16v-.54c.69-.13,1.49-.24,2.37-.24,2.18,0,3.43,.54,3.43,2.43v5.3h-1.63v-.46c-.5,.32-1.26,.58-2.24,.58-1.95,0-2.86-.94-2.86-2.32Zm3.14-9.38h1.12l1.81,2.81h-1.34l-1.34-2.11-1.36,2.11h-.69l1.81-2.81Zm1.95,10.77v-3.2h-1.6c-1.38,0-1.75,.48-1.75,1.73s.38,1.76,1.7,1.76c.74,0,1.38-.18,1.65-.29Z"/><path class="i" d="M146.28,602.75c0-1.5,.99-2.32,3.01-2.32h2.08v-.89c0-1.49-.83-1.68-2.21-1.69-.66,0-1.36,.06-1.94,.16v-.54c.69-.13,1.49-.24,2.37-.24,2.18,0,3.43,.54,3.43,2.43v5.3h-1.63v-.46c-.5,.32-1.26,.58-2.24,.58-1.95,0-2.87-.94-2.87-2.32Zm1.33-8.63h1.36v1.74h-1.36v-1.74Zm3.76,10.02v-3.2h-1.6c-1.38,0-1.75,.48-1.75,1.73s.38,1.76,1.7,1.76c.74,0,1.38-.18,1.65-.29Zm-.48-10.02h1.38v1.74h-1.38v-1.74Z"/><path class="i" d="M157.9,602.75c0-1.5,.99-2.32,3.01-2.32h2.08v-.89c0-1.49-.83-1.68-2.21-1.69-.66,0-1.36,.06-1.94,.16v-.54c.69-.13,1.49-.24,2.37-.24,2.18,0,3.43,.54,3.43,2.43v5.3h-1.63v-.46c-.5,.32-1.26,.58-2.24,.58-1.95,0-2.87-.94-2.87-2.32Zm4.18-6.57h-.58l-1.94-2.81h1.73l.78,2.81Zm.91,7.96v-3.2h-1.6c-1.38,0-1.75,.48-1.75,1.73s.38,1.76,1.7,1.76c.74,0,1.38-.18,1.65-.29Z"/><path class="i" d="M169.52,602.75c0-1.5,.99-2.32,3.01-2.32h2.08v-.89c0-1.49-.83-1.68-2.21-1.69-.66,0-1.36,.06-1.94,.16v-.54c.69-.13,1.49-.24,2.37-.24,2.18,0,3.43,.54,3.43,2.43v5.3h-1.63v-.46c-.5,.32-1.26,.58-2.24,.58-1.95,0-2.86-.94-2.86-2.32Zm1.3-7.92h4.63v.69h-4.63v-.69Zm3.79,9.31v-3.2h-1.6c-1.38,0-1.75,.48-1.75,1.73s.38,1.76,1.7,1.76c.74,0,1.38-.18,1.65-.29Z"/><path class="i" d="M185.15,606.72c0-.77,.54-1.45,1.09-1.79v-.43c-.5,.32-1.26,.58-2.24,.58-1.95,0-2.86-.94-2.86-2.32,0-1.5,.99-2.32,3.01-2.32h2.08v-.89c0-1.49-.83-1.68-2.21-1.69-.66,0-1.36,.06-1.94,.16v-.54c.69-.13,1.49-.24,2.37-.24,2.18,0,3.43,.54,3.43,2.43v5.3h-.69c-.53,.42-.8,.97-.8,1.65,0,.85,.37,1.05,1.28,1.05,.26,0,.48-.03,.66-.06v.46c-.29,.06-.66,.14-1.15,.14-1.17,0-2.02-.35-2.02-1.49Zm1.07-2.57v-3.2h-1.6c-1.38,0-1.75,.48-1.75,1.73s.38,1.76,1.7,1.76c.74,0,1.38-.18,1.65-.29Z"/><path class="i" d="M192.75,602.75c0-1.5,.99-2.32,3.01-2.32h2.08v-.89c0-1.49-.83-1.68-2.21-1.69-.66,0-1.36,.06-1.94,.16v-.54c.69-.13,1.49-.24,2.37-.24,2.18,0,3.43,.54,3.43,2.43v5.3h-1.63v-.46c-.5,.32-1.26,.58-2.24,.58-1.95,0-2.87-.94-2.87-2.32Zm1.75-8.39c0-1.09,.64-1.82,1.83-1.82s1.84,.73,1.84,1.82-.62,1.82-1.84,1.82-1.83-.72-1.83-1.82Zm3.35,9.78v-3.2h-1.6c-1.38,0-1.75,.48-1.75,1.73s.38,1.76,1.7,1.76c.74,0,1.38-.18,1.65-.29Zm-.18-9.76c0-.8-.38-1.34-1.04-1.34-.7,0-1.06,.46-1.06,1.34s.32,1.31,1.06,1.31c.67,0,1.04-.53,1.04-1.31Z"/><path class="i" d="M204.36,602.75c0-1.5,.99-2.32,3.01-2.32h2.08v-.89c0-1.49-.83-1.68-2.21-1.69-.66,0-1.36,.06-1.94,.16v-.54c.69-.13,1.49-.24,2.37-.24,2.18,0,3.43,.54,3.43,2.43v5.3h-1.63v-.46c-.5,.32-1.26,.58-2.24,.58-1.95,0-2.87-.94-2.87-2.32Zm3.33-7.57c-.53-.53-.75-.77-1.17-.77s-.67,.21-.69,1.07v.24h-.43c-.02-.11-.03-.21-.03-.32,0-1.2,.42-1.84,1.44-1.82,.67,0,1.01,.22,1.52,.72,.51,.51,.75,.77,1.2,.77,.42,0,.66-.21,.69-1.09,0-.11,0-.14-.02-.27h.43c.02,.13,.03,.22,.03,.35,0,1.2-.42,1.84-1.44,1.82-.66,0-1.04-.19-1.54-.7Zm1.76,8.96v-3.2h-1.6c-1.38,0-1.75,.48-1.75,1.73s.38,1.76,1.7,1.76c.74,0,1.38-.18,1.65-.29Z"/></g><rect x="218.92" y="580.3" width="71.15" height="34.27"/><g><path class="i" d="M228.48,601.14c0-2.64,1.47-3.91,4.18-3.91,.75,0,1.42,.08,2,.19v.54c-.5-.08-1.01-.13-1.52-.13-2.03,0-2.88,.8-2.88,3.29s.85,3.29,2.88,3.29c.51,0,1.07-.05,1.57-.11v.53c-.58,.11-1.3,.21-2.05,.21-2.72,0-4.18-1.31-4.18-3.9Zm4.05-7.76h1.73l-1.95,2.81h-.56l.78-2.81Z"/><path class="i" d="M239.28,601.14c0-2.64,1.47-3.91,4.18-3.91,.75,0,1.42,.08,2,.19v.54c-.5-.08-1.01-.13-1.52-.13-2.03,0-2.88,.8-2.88,3.29s.85,3.29,2.88,3.29c.51,0,1.07-.05,1.57-.11v.53c-.58,.11-1.3,.21-2.05,.21-2.72,0-4.18-1.31-4.18-3.9Zm1.26-7.76h1.36l1.36,2.16,1.39-2.16h.69l-1.81,2.81h-1.18l-1.81-2.81Z"/><path class="i" d="M254.47,605.04l-.3,2.75h-1.58l1.28-2.76c-2.46-.11-3.78-1.42-3.78-3.88,0-2.64,1.47-3.91,4.18-3.91,.75,0,1.42,.08,2,.19v.54c-.5-.08-1.01-.13-1.52-.13-2.03,0-2.88,.8-2.88,3.29s.85,3.29,2.88,3.29c.51,0,1.07-.05,1.57-.11v.53c-.53,.11-1.17,.19-1.84,.21Z"/><path class="i" d="M260.88,601.14c0-2.64,1.47-3.91,4.18-3.91,.75,0,1.42,.08,2,.19v.54c-.5-.08-1.01-.13-1.52-.13-2.03,0-2.88,.8-2.88,3.29s.85,3.29,2.88,3.29c.51,0,1.07-.05,1.57-.11v.53c-.58,.11-1.3,.21-2.05,.21-2.72,0-4.18-1.31-4.18-3.9Zm3.12-7.76h1.12l1.81,2.81h-1.34l-1.34-2.11-1.36,2.11h-.69l1.81-2.81Z"/><path class="i" d="M271.68,601.14c0-2.64,1.47-3.91,4.18-3.91,.75,0,1.42,.08,2,.19v.54c-.5-.08-1.01-.13-1.52-.13-2.03,0-2.88,.8-2.88,3.29s.85,3.29,2.88,3.29c.51,0,1.07-.05,1.57-.11v.53c-.58,.11-1.3,.21-2.05,.21-2.72,0-4.18-1.31-4.18-3.9Zm2.75-7.01h1.73v1.74h-1.73v-1.74Z"/></g><path class="i" d="M13.36,637.14c0-2.62,1.47-3.95,3.52-3.95,.78,0,1.52,.14,2.15,.51v-4.54h1.73v11.79h-1.67v-.43c-.64,.4-1.39,.54-2.21,.54-2.08,0-3.52-1.34-3.52-3.93Zm5.67,2.99v-5.97c-.46-.16-.98-.26-1.47-.26-1.58,0-2.42,.81-2.42,3.23s.83,3.26,2.42,3.26c.5,0,1.01-.1,1.47-.26Zm2.54-10.96h1.62l-1.09,2.94h-.53v-2.94Z"/><rect x="37.8" y="615.9" width="106.93" height="34.91"/><g><path class="i" d="M40.01,634.79c0-2.62,1.57-3.93,3.6-3.93,2.14,0,3.52,1.23,3.52,3.82,0,.13-.02,.29-.03,.45h-5.36c.05,2.41,.79,2.96,2.93,2.96,.69,0,1.34-.05,2.02-.18v.54c-.72,.18-1.47,.26-2.42,.26-2.5,0-4.26-.85-4.26-3.91Zm1.73-.24h3.73c-.06-2.17-.4-3.08-1.84-3.08s-1.86,.91-1.89,3.08Zm2.11-7.51h1.73l-1.95,2.81h-.56l.78-2.81Z"/><path class="i" d="M51.9,634.79c0-2.62,1.57-3.93,3.6-3.93,2.14,0,3.52,1.23,3.52,3.82,0,.13-.02,.29-.03,.45h-5.36c.05,2.41,.79,2.96,2.93,2.96,.69,0,1.34-.05,2.02-.18v.54c-.72,.18-1.47,.26-2.42,.26-2.5,0-4.26-.85-4.26-3.91Zm1.25-7.22v-.53h1.25v.56c0,1.26,.38,1.66,1.38,1.66s1.36-.4,1.36-1.66v-.56h.66v.53c0,1.68-.77,2.29-2.32,2.29-1.33,0-2.32-.61-2.32-2.29Zm.48,6.98h3.73c-.06-2.17-.4-3.08-1.84-3.08s-1.86,.91-1.89,3.08Z"/><path class="i" d="M63.79,634.79c0-2.62,1.57-3.93,3.6-3.93,2.14,0,3.52,1.23,3.52,3.82,0,.13-.02,.29-.03,.45h-5.36c.05,2.41,.79,2.96,2.93,2.96,.69,0,1.34-.05,2.02-.18v.54c-.72,.18-1.47,.26-2.42,.26-2.5,0-4.26-.85-4.26-3.91Zm1.14-7.75h1.36l1.36,2.16,1.39-2.16h.69l-1.81,2.81h-1.18l-1.81-2.81Zm.59,7.51h3.73c-.06-2.17-.4-3.08-1.84-3.08s-1.86,.91-1.89,3.08Z"/><path class="i" d="M75.67,634.79c0-2.62,1.57-3.93,3.6-3.93,2.14,0,3.52,1.23,3.52,3.82,0,.13-.02,.29-.03,.45h-5.36c.05,2.41,.79,2.96,2.93,2.96,.69,0,1.34-.05,2.02-.18v.54c-.72,.18-1.47,.26-2.42,.26-2.5,0-4.26-.85-4.26-3.91Zm3.04-7.75h1.12l1.81,2.81h-1.34l-1.34-2.11-1.36,2.11h-.69l1.81-2.81Zm-1.31,7.51h3.73c-.06-2.17-.4-3.08-1.84-3.08s-1.86,.91-1.89,3.08Z"/><path class="i" d="M87.56,634.79c0-2.62,1.57-3.93,3.6-3.93,2.14,0,3.52,1.23,3.52,3.82,0,.13-.02,.29-.03,.45h-5.36c.05,2.41,.79,2.96,2.93,2.96,.69,0,1.34-.05,2.02-.18v.54c-.72,.18-1.47,.26-2.42,.26-2.5,0-4.26-.85-4.26-3.91Zm1.25-7h1.36v1.74h-1.36v-1.74Zm.48,6.76h3.73c-.06-2.17-.4-3.08-1.84-3.08s-1.86,.91-1.89,3.08Zm2.8-6.76h1.38v1.74h-1.38v-1.74Z"/><path class="i" d="M99.45,634.79c0-2.62,1.57-3.93,3.6-3.93,2.14,0,3.52,1.23,3.52,3.82,0,.13-.02,.29-.03,.45h-5.36c.05,2.41,.79,2.96,2.93,2.96,.69,0,1.34-.05,2.02-.18v.54c-.72,.18-1.47,.26-2.42,.26-2.5,0-4.26-.85-4.26-3.91Zm1.73-.24h3.73c-.06-2.17-.4-3.08-1.84-3.08s-1.86,.91-1.89,3.08Zm.99-6.76h1.73v1.74h-1.73v-1.74Z"/><path class="i" d="M111.34,634.79c0-2.62,1.57-3.93,3.6-3.93,2.14,0,3.52,1.23,3.52,3.82,0,.13-.02,.29-.03,.45h-5.36c.05,2.41,.79,2.96,2.93,2.96,.69,0,1.34-.05,2.02-.18v.54c-.72,.18-1.47,.26-2.42,.26-2.5,0-4.26-.85-4.26-3.91Zm4.13-4.94h-.58l-1.94-2.81h1.73l.78,2.81Zm-2.4,4.7h3.73c-.06-2.17-.4-3.08-1.84-3.08s-1.86,.91-1.89,3.08Z"/><path class="i" d="M123.22,634.79c0-2.62,1.57-3.93,3.6-3.93,2.14,0,3.52,1.23,3.52,3.82,0,.13-.02,.29-.03,.45h-5.36c.05,2.41,.79,2.96,2.93,2.96,.69,0,1.34-.05,2.02-.18v.54c-.72,.18-1.47,.26-2.42,.26-2.5,0-4.26-.85-4.26-3.91Zm1.28-6.29h4.63v.69h-4.63v-.69Zm.45,6.05h3.73c-.06-2.17-.4-3.08-1.84-3.08s-1.86,.91-1.89,3.08Z"/><path class="i" d="M135.11,634.79c0-2.62,1.57-3.93,3.6-3.93,2.14,0,3.52,1.23,3.52,3.82,0,.13-.02,.29-.03,.45h-5.36c.05,2.41,.79,2.96,2.93,2.96,.69,0,1.34-.05,2.02-.18v.54c-.38,.1-.77,.16-1.18,.19-.5,.42-.75,.96-.75,1.61,0,.85,.37,1.05,1.28,1.05,.26,0,.48-.03,.66-.05v.45c-.29,.06-.66,.14-1.15,.14-1.17,0-2.02-.34-2.02-1.39,0-.75,.54-1.39,1.15-1.76h-.4c-2.5,0-4.26-.85-4.26-3.91Zm1.73-.24h3.73c-.06-2.17-.4-3.08-1.84-3.08s-1.86,.91-1.89,3.08Z"/></g><rect x="146.54" y="615.9" width="70.63" height="34.91"/><g><path class="i" d="M164.81,639.15v-.99c-.64,.38-1.38,.51-2.16,.51-2.08,0-3.51-1.29-3.51-3.9s1.46-3.91,3.51-3.91c.82,0,1.58,.14,2.22,.56v-.45h1.63v7.75c0,2.62-1.76,3.18-4.16,3.18-.85,0-1.54-.1-2.16-.22v-.54c.64,.1,1.26,.14,1.92,.14,1.7,0,2.71-.29,2.71-2.12Zm-4.18-11.58v-.53h1.25v.56c0,1.26,.38,1.66,1.38,1.66s1.36-.4,1.36-1.66v-.56h.66v.53c0,1.68-.77,2.29-2.32,2.29-1.33,0-2.32-.61-2.32-2.29Zm4.18,10.18v-5.93c-.46-.16-.98-.26-1.49-.26-1.58,0-2.4,.77-2.4,3.18s.83,3.26,2.4,3.26c.5,0,1.02-.11,1.49-.26Z"/><path class="i" d="M177.2,639.15v-.99c-.64,.38-1.38,.51-2.16,.51-2.08,0-3.51-1.29-3.51-3.9s1.46-3.91,3.51-3.91c.82,0,1.58,.14,2.22,.56v-.45h1.63v7.75c0,2.62-1.76,3.18-4.16,3.18-.85,0-1.54-.1-2.16-.22v-.54c.64,.1,1.26,.14,1.92,.14,1.7,0,2.71-.29,2.71-2.12Zm-2.34-12.11h1.12l1.81,2.81h-1.34l-1.34-2.11-1.36,2.11h-.69l1.81-2.81Zm2.34,10.7v-5.93c-.46-.16-.98-.26-1.49-.26-1.58,0-2.4,.77-2.4,3.18s.83,3.26,2.4,3.26c.5,0,1.02-.11,1.49-.26Z"/><path class="i" d="M189.58,639.15v-.99c-.64,.38-1.38,.51-2.16,.51-2.08,0-3.51-1.29-3.51-3.9s1.46-3.91,3.51-3.91c.82,0,1.58,.14,2.22,.56v-.45h1.63v7.75c0,2.62-1.76,3.18-4.16,3.18-.85,0-1.54-.1-2.16-.22v-.54c.64,.1,1.26,.14,1.92,.14,1.7,0,2.71-.29,2.71-2.12Zm0-1.41v-5.93c-.46-.16-.98-.26-1.49-.26-1.58,0-2.4,.77-2.4,3.18s.83,3.26,2.4,3.26c.5,0,1.02-.11,1.49-.26Zm-1.06-8.12h-1.68l1.54-2.62h.56l-.42,2.62Z"/><path class="i" d="M201.97,639.15v-.99c-.64,.38-1.38,.51-2.16,.51-2.08,0-3.51-1.29-3.51-3.9s1.46-3.91,3.51-3.91c.82,0,1.58,.14,2.22,.56v-.45h1.63v7.75c0,2.62-1.76,3.18-4.16,3.18-.85,0-1.54-.1-2.16-.22v-.54c.64,.1,1.26,.14,1.92,.14,1.7,0,2.71-.29,2.71-2.12Zm0-1.41v-5.93c-.46-.16-.98-.26-1.49-.26-1.58,0-2.4,.77-2.4,3.18s.83,3.26,2.4,3.26c.5,0,1.02-.11,1.49-.26Zm-2.64-9.95h1.73v1.74h-1.73v-1.74Z"/></g><path class="i" d="M232.83,626.83h1.73v4.71c.54-.38,1.46-.69,2.43-.69,1.79,0,2.91,.75,2.91,2.81v4.95h-1.73v-4.95c0-1.49-.51-2.04-1.97-2.04-.64,0-1.14,.13-1.65,.29v6.71h-1.73v-11.79Zm2.9-3.5h1.12l1.81,2.81h-1.34l-1.34-2.11-1.36,2.11h-.69l1.81-2.81Z"/><path class="i" d="M269.31,627.79h1.73v1.74h-1.73v-1.74Zm0,3.18h1.73v7.65h-1.73v-7.65Zm1.55,10.77v-.53c.26,.03,.42,.03,.69,.03,.82,0,1.15-.29,1.15-1.37v-8.9h1.73v8.5c0,1.84-1.04,2.41-2.29,2.41-.54,0-.9-.05-1.28-.14Zm1.84-13.95h1.73v1.74h-1.73v-1.74Z"/><rect class="e" y="686.82" width="290.91" height="1.39"/><rect class="e" x=".23" y="723.12" width="290.68" height="1.39"/><rect x="1.85" y="652.21" width="70.63" height="34.61"/><g><path class="i" d="M10.62,667.91h1.73v7.65h-1.73v-7.65Zm1.23-3.93h1.73l-1.95,2.81h-.56l.79-2.81Z"/><path class="i" d="M16.2,664.51v-.53h1.25v.56c0,1.26,.38,1.66,1.38,1.66s1.36-.4,1.36-1.66v-.56h.66v.53c0,1.68-.77,2.29-2.32,2.29-1.33,0-2.32-.61-2.32-2.29Zm1.44,3.4h1.73v7.65h-1.73v-7.65Z"/><path class="i" d="M24.95,663.98h1.12l1.81,2.81h-1.34l-1.34-2.11-1.36,2.11h-.69l1.81-2.81Zm-.29,3.93h1.73v7.65h-1.73v-7.65Z"/><path class="i" d="M30.23,664.73h1.36v1.74h-1.36v-1.74Zm1.46,3.18h1.73v7.65h-1.73v-7.65Zm1.83-3.18h1.38v1.74h-1.38v-1.74Z"/><path class="i" d="M40.01,666.8h-.58l-1.94-2.81h1.73l.78,2.81Zm-1.3,1.12h1.73v7.65h-1.73v-7.65Z"/><path class="i" d="M44.3,665.44h4.63v.69h-4.63v-.69Zm1.44,2.48h1.73v7.65h-1.73v-7.65Z"/><path class="i" d="M51.77,677.32c0-.77,.54-1.45,.99-1.79v-7.62h1.73v7.65h-.77c-.45,.42-.72,.97-.72,1.58,0,.88,.37,1.12,1.31,1.12,.26,0,.48-.03,.66-.06v.46c-.3,.06-.69,.14-1.2,.14-1.14,0-2-.35-2-1.49Zm.99-12.59h1.73v1.74h-1.73v-1.74Z"/><path class="i" d="M60.31,665.79c-.53-.53-.75-.77-1.17-.77s-.67,.21-.69,1.07v.24h-.43c-.02-.11-.03-.21-.03-.32,0-1.2,.42-1.84,1.44-1.82,.67,0,1.01,.22,1.52,.72,.51,.51,.75,.77,1.2,.77,.42,0,.66-.21,.69-1.09,0-.11,0-.14-.02-.27h.43c.02,.13,.03,.22,.03,.35,0,1.2-.42,1.84-1.44,1.82-.66,0-1.04-.19-1.54-.7Zm-.53,2.12h1.73v7.65h-1.73v-7.65Z"/></g><path class="i" d="M88.76,678.7v-.54c.26,.03,.42,.03,.69,.03,.82,0,1.15-.29,1.15-1.37v-8.9h1.73v8.5c0,1.84-1.04,2.41-2.29,2.41-.54,0-.9-.05-1.28-.13Zm2.14-14.71h1.12l1.81,2.81h-1.34l-1.34-2.11-1.36,2.11h-.69l1.81-2.81Z"/><g><path class="i" d="M122.44,672.02l-1.2,1.28v2.27h-1.7v-11.79h1.7v8.63l4.18-4.49h.9l-2.71,2.89,3.01,4.76h-1.94l-2.24-3.55Zm-.34,4.28h1.67l-1.54,2.65h-.56l.43-2.65Z"/><path class="i" d="M134.14,672.02l-1.2,1.28v2.27h-1.7v-7.65h1.7v4.49l4.18-4.49h.9l-2.71,2.89,3.01,4.76h-1.94l-2.24-3.55Z"/></g><rect x="146.54" y="652.21" width="70.63" height="34.61"/><g><path class="i" d="M162.09,663.78h1.73v11.79h-1.73v-11.79Zm1.2-3.5h1.73l-1.95,2.81h-.56l.78-2.81Z"/><path class="i" d="M169.11,663.78h1.73v11.79h-1.73v-11.79Zm2.55,0h1.62l-1.09,2.94h-.53v-2.94Z"/><path class="i" d="M176.23,676.3h1.66l-1.54,2.65h-.56l.43-2.65Zm-.1-12.53h1.73v11.79h-1.73v-11.79Z"/><path class="i" d="M183.16,663.78h1.73v11.79h-1.73v-11.79Zm1.2-3.5h1.73l-1.95,2.81h-.56l.78-2.81Z"/><path class="i" d="M190.19,663.78h1.73v11.79h-1.73v-11.79Zm2.55,0h1.62l-1.09,2.94h-.53v-2.94Z"/><path class="i" d="M197.31,676.3h1.66l-1.54,2.65h-.56l.43-2.65Zm-.1-12.53h1.73v11.79h-1.73v-11.79Z"/></g><g><path class="i" d="M116.31,703.76h1.62v.58c.62-.42,1.36-.59,2.21-.59,.26,0,.59,.03,.86,.08v.59c-.26-.02-.54-.02-.8-.02-.7,0-1.41,.08-2.16,.32v6.69h-1.73v-7.65Zm2.55-3.93h1.73l-1.95,2.81h-.56l.79-2.81Z"/><path class="i" d="M125.35,699.83h1.36l1.36,2.16,1.39-2.16h.69l-1.81,2.81h-1.18l-1.81-2.81Zm.14,3.93h1.62v.58c.62-.42,1.36-.59,2.21-.59,.26,0,.59,.03,.86,.08v.59c-.26-.02-.54-.02-.8-.02-.7,0-1.41,.08-2.16,.32v6.69h-1.73v-7.65Z"/><path class="i" d="M134.76,712.15h1.67l-1.54,2.65h-.56l.43-2.65Zm-.08-8.39h1.62v.58c.62-.42,1.36-.59,2.21-.59,.26,0,.59,.03,.86,.08v.59c-.26-.02-.54-.02-.8-.02-.7,0-1.41,.08-2.16,.32v6.69h-1.73v-7.65Z"/></g><g><path class="i" d="M228.69,703.76h1.17v-2.22h1.73v2.22h2.02v.58h-2.02v5.3c0,.93,.35,1.21,1.22,1.21,.3,0,.51-.03,.8-.1v.54c-.45,.11-.87,.16-1.5,.16-1.28,0-2.24-.42-2.24-2.16v-4.97h-1.17v-.58Zm3.76-4.14h1.62l-1.09,2.94h-.53v-2.94Z"/><path class="i" d="M237.7,703.76h1.17v-2.22h1.73v2.22h2.02v.58h-2.02v5.3c0,.93,.35,1.21,1.22,1.21,.3,0,.51-.03,.8-.1v.54c-.45,.11-.87,.16-1.5,.16-1.28,0-2.24-.42-2.24-2.16v-4.97h-1.17v-.58Zm2.24,8.39h1.67l-1.54,2.65h-.56l.43-2.65Z"/></g><g><path class="i" d="M149.37,775.97h6.11v.58l-4.32,6.49h4.45v.59h-6.4v-.59l4.31-6.49h-4.15v-.58Zm3.38-3.93h1.73l-1.95,2.81h-.56l.78-2.81Z"/><path class="i" d="M160.12,775.97h6.11v.58l-4.32,6.49h4.45v.59h-6.4v-.59l4.31-6.49h-4.15v-.58Zm.72-3.93h1.36l1.36,2.16,1.39-2.16h.69l-1.81,2.81h-1.18l-1.81-2.81Z"/><path class="i" d="M170.88,775.97h6.11v.58l-4.32,6.49h4.45v.59h-6.4v-.59l4.31-6.49h-4.15v-.58Zm2.22-3.18h1.73v1.74h-1.73v-1.74Z"/></g><rect x="219.18" y="652.21" width="70.63" height="34.61"/><g><path class="i" d="M232.37,667.91h1.67v.58c.56-.38,1.5-.69,2.5-.69,1.79,0,2.91,.75,2.91,2.81v4.95h-1.73v-4.95c0-1.49-.51-2.04-1.97-2.04-.64,0-1.14,.13-1.65,.29v6.71h-1.73v-7.65Zm3.84-3.93h1.73l-1.95,2.81h-.56l.78-2.81Z"/><path class="i" d="M244.69,667.91h1.67v.58c.56-.38,1.5-.69,2.5-.69,1.79,0,2.91,.75,2.91,2.81v4.95h-1.73v-4.95c0-1.49-.51-2.04-1.97-2.04-.64,0-1.14,.13-1.65,.29v6.71h-1.73v-7.65Zm1.1-3.93h1.36l1.36,2.16,1.39-2.16h.69l-1.81,2.81h-1.18l-1.81-2.81Z"/><path class="i" d="M257.01,667.91h1.67v.58c.56-.38,1.5-.69,2.5-.69,1.79,0,2.91,.75,2.91,2.81v4.95h-1.73v-4.95c0-1.49-.51-2.04-1.97-2.04-.64,0-1.14,.13-1.65,.29v6.71h-1.73v-7.65Zm2.72,8.39h1.67l-1.54,2.65h-.56l.43-2.65Z"/><path class="i" d="M269.33,667.91h1.67v.58c.56-.38,1.5-.69,2.5-.69,1.79,0,2.91,.75,2.91,2.81v4.95h-1.73v-4.95c0-1.49-.51-2.04-1.97-2.04-.64,0-1.14,.13-1.65,.29v6.71h-1.73v-7.65Zm3.17-2.12c-.53-.53-.75-.77-1.17-.77s-.67,.21-.69,1.07v.24h-.43c-.02-.11-.03-.21-.03-.32,0-1.2,.42-1.84,1.44-1.82,.67,0,1.01,.22,1.52,.72,.51,.51,.75,.77,1.2,.77,.42,0,.66-.21,.69-1.09,0-.11,0-.14-.02-.27h.43c.02,.13,.03,.22,.03,.35,0,1.2-.42,1.84-1.44,1.82-.66,0-1.04-.19-1.54-.7Z"/></g><rect x="1.85" y="688.21" width="106.93" height="34.91"/><g><path class="i" d="M7.52,707.6c0-2.4,1.39-3.95,3.83-3.95s3.83,1.55,3.83,3.95-1.39,3.93-3.83,3.93-3.83-1.5-3.83-3.93Zm5.88,0c0-2.2-.58-3.34-2.05-3.34s-2.05,1.13-2.05,3.34,.58,3.34,2.05,3.34,2.05-1.15,2.05-3.34Zm-1.83-7.76h1.73l-1.95,2.81h-.56l.78-2.81Z"/><path class="i" d="M19.95,707.6c0-2.4,1.39-3.95,3.83-3.95s3.83,1.55,3.83,3.95-1.39,3.93-3.83,3.93-3.83-1.5-3.83-3.93Zm1.52-7.24v-.53h1.25v.56c0,1.26,.38,1.66,1.38,1.66s1.36-.4,1.36-1.66v-.56h.66v.53c0,1.68-.77,2.29-2.32,2.29-1.33,0-2.32-.61-2.32-2.29Zm4.35,7.24c0-2.2-.58-3.34-2.05-3.34s-2.05,1.13-2.05,3.34,.58,3.34,2.05,3.34,2.05-1.15,2.05-3.34Z"/><path class="i" d="M32.38,707.6c0-2.4,1.39-3.95,3.83-3.95s3.83,1.55,3.83,3.95-1.39,3.93-3.83,3.93-3.83-1.5-3.83-3.93Zm3.25-7.76h1.12l1.81,2.81h-1.34l-1.34-2.11-1.36,2.11h-.69l1.81-2.81Zm2.62,7.76c0-2.2-.58-3.34-2.05-3.34s-2.05,1.13-2.05,3.34,.58,3.34,2.05,3.34,2.05-1.15,2.05-3.34Z"/><path class="i" d="M44.82,707.6c0-2.4,1.39-3.95,3.83-3.95s3.83,1.55,3.83,3.95-1.39,3.93-3.83,3.93-3.83-1.5-3.83-3.93Zm1.49-7.01h1.36v1.74h-1.36v-1.74Zm4.39,7.01c0-2.2-.58-3.34-2.05-3.34s-2.05,1.13-2.05,3.34,.58,3.34,2.05,3.34,2.05-1.15,2.05-3.34Zm-1.1-7.01h1.38v1.74h-1.38v-1.74Z"/><path class="i" d="M57.25,707.6c0-2.4,1.39-3.95,3.83-3.95s3.83,1.55,3.83,3.95-1.39,3.93-3.83,3.93-3.83-1.5-3.83-3.93Zm5.88,0c0-2.2-.58-3.34-2.05-3.34s-2.05,1.13-2.05,3.34,.58,3.34,2.05,3.34,2.05-1.15,2.05-3.34Zm-1.44-4.95h-.58l-1.94-2.81h1.73l.78,2.81Z"/><path class="i" d="M69.68,707.6c0-2.4,1.39-3.95,3.83-3.95s3.83,1.55,3.83,3.95-1.39,3.93-3.83,3.93-3.83-1.5-3.83-3.93Zm5.88,0c0-2.2-.58-3.34-2.05-3.34s-2.05,1.13-2.05,3.34,.58,3.34,2.05,3.34,2.05-1.15,2.05-3.34Zm-2.85-7.76h1.58l-1.79,2.81h-.56l.77-2.81Zm2.46,0h1.58l-1.79,2.81h-.58l.78-2.81Z"/><path class="i" d="M82.11,707.6c0-2.4,1.39-3.95,3.83-3.95s3.83,1.55,3.83,3.95-1.39,3.93-3.83,3.93-3.83-1.5-3.83-3.93Zm1.5-6.31h4.63v.69h-4.63v-.69Zm4.37,6.31c0-2.2-.58-3.34-2.05-3.34s-2.05,1.13-2.05,3.34,.58,3.34,2.05,3.34,2.05-1.15,2.05-3.34Z"/><path class="i" d="M94.54,707.6c0-2.4,1.39-3.95,3.83-3.95s3.83,1.55,3.83,3.95-1.39,3.93-3.83,3.93-3.83-1.5-3.83-3.93Zm3.49-5.96c-.53-.53-.75-.77-1.17-.77s-.67,.21-.69,1.07v.24h-.43c-.02-.11-.03-.21-.03-.32,0-1.2,.42-1.84,1.44-1.82,.67,0,1.01,.22,1.52,.72,.51,.51,.75,.77,1.2,.77,.42,0,.66-.21,.69-1.09,0-.11,0-.14-.02-.27h.43c.02,.13,.03,.22,.03,.35,0,1.2-.42,1.84-1.44,1.82-.66,0-1.04-.19-1.54-.7Zm2.39,5.96c0-2.2-.58-3.34-2.05-3.34s-2.05,1.13-2.05,3.34,.58,3.34,2.05,3.34,2.05-1.15,2.05-3.34Z"/></g><rect x="146.54" y="688.36" width="70.63" height="34.76"/><g><path class="i" d="M157.84,711.27v-.54c.78,.1,1.46,.14,2.42,.14,1.68,0,2.35-.42,2.37-1.25,.02-.42-.14-.66-.46-.86-.37-.21-.9-.35-1.62-.54-.8-.21-1.5-.4-1.95-.8-.4-.35-.62-.8-.62-1.49,0-1.84,1.67-2.25,3.09-2.25,.9,0,1.7,.1,2.34,.22v.53c-.64-.1-1.33-.14-1.97-.14-1.36,0-1.94,.37-1.95,1.13,0,.46,.18,.72,.5,.91,.35,.21,.85,.35,1.47,.5,.85,.22,1.52,.43,1.99,.75,.48,.35,.72,.81,.7,1.6-.02,1.74-1.68,2.32-3.63,2.32-1.07,0-1.84-.1-2.66-.22Zm3.25-11.44h1.73l-1.95,2.81h-.56l.79-2.81Z"/><path class="i" d="M168.59,711.27v-.54c.78,.1,1.46,.14,2.42,.14,1.68,0,2.35-.42,2.37-1.25,.02-.42-.14-.66-.46-.86-.37-.21-.9-.35-1.62-.54-.8-.21-1.5-.4-1.95-.8-.4-.35-.62-.8-.62-1.49,0-1.84,1.67-2.25,3.09-2.25,.9,0,1.7,.1,2.34,.22v.53c-.64-.1-1.33-.14-1.97-.14-1.36,0-1.94,.37-1.95,1.13,0,.46,.18,.72,.5,.91,.35,.21,.85,.35,1.47,.5,.85,.22,1.52,.43,1.99,.75,.48,.35,.72,.81,.7,1.6-.02,1.74-1.68,2.32-3.63,2.32-1.07,0-1.84-.1-2.66-.22Zm.64-11.44h1.36l1.36,2.16,1.39-2.16h.69l-1.81,2.81h-1.18l-1.81-2.81Z"/><path class="i" d="M179.34,711.27v-.54c.78,.1,1.46,.14,2.42,.14,1.68,0,2.35-.42,2.37-1.25,.02-.42-.14-.66-.46-.86-.37-.21-.9-.35-1.62-.54-.8-.21-1.5-.4-1.95-.8-.4-.35-.62-.8-.62-1.49,0-1.84,1.67-2.25,3.09-2.25,.9,0,1.7,.1,2.34,.22v.53c-.64-.1-1.33-.14-1.97-.14-1.36,0-1.94,.37-1.95,1.13,0,.46,.18,.72,.5,.91,.35,.21,.85,.35,1.47,.5,.85,.22,1.52,.43,1.99,.75,.48,.35,.72,.81,.7,1.6-.02,1.47-1.18,2.11-2.72,2.27l-.32,2.8h-1.58l1.28-2.76c-.1,0-.19,.02-.29,.02-1.07,0-1.84-.1-2.66-.22Z"/><path class="i" d="M190.09,711.27v-.54c.78,.1,1.46,.14,2.42,.14,1.68,0,2.35-.42,2.37-1.25,.02-.42-.14-.66-.46-.86-.37-.21-.9-.35-1.62-.54-.8-.21-1.5-.4-1.95-.8-.4-.35-.62-.8-.62-1.49,0-1.84,1.67-2.25,3.09-2.25,.9,0,1.7,.1,2.34,.22v.53c-.64-.1-1.33-.14-1.97-.14-1.36,0-1.94,.37-1.95,1.13,0,.46,.18,.72,.5,.91,.35,.21,.85,.35,1.47,.5,.85,.22,1.52,.43,1.99,.75,.48,.35,.72,.81,.7,1.6-.02,1.74-1.68,2.32-3.63,2.32-1.07,0-1.84-.1-2.66-.22Zm2.42-11.44h1.12l1.81,2.81h-1.34l-1.34-2.11-1.36,2.11h-.69l1.81-2.81Z"/><path class="i" d="M200.84,711.27v-.54c.78,.1,1.46,.14,2.42,.14,1.68,0,2.35-.42,2.37-1.25,.02-.42-.14-.66-.46-.86-.37-.21-.9-.35-1.62-.54-.8-.21-1.5-.4-1.95-.8-.4-.35-.62-.8-.62-1.49,0-1.84,1.67-2.25,3.09-2.25,.9,0,1.7,.1,2.34,.22v.53c-.64-.1-1.33-.14-1.97-.14-1.36,0-1.94,.37-1.95,1.13,0,.46,.18,.72,.5,.91,.35,.21,.85,.35,1.47,.5,.85,.22,1.52,.43,1.99,.75,.48,.35,.72,.81,.7,1.6-.02,1.74-1.68,2.32-3.63,2.32-1.07,0-1.84-.1-2.66-.22Zm2.39,.88h1.66l-1.54,2.65h-.56l.43-2.65Z"/></g><path class="i" d="M268.4,712.1v-4.95h1.73v4.95c0,1.47,.53,2.03,1.98,2.03,.64,0,1.14-.11,1.65-.29v-6.69h1.73v7.65h-1.67v-.58c-.56,.38-1.5,.69-2.5,.69-1.79,0-2.93-.75-2.93-2.81Zm3.92-8.88h1.73l-1.95,2.81h-.56l.78-2.81Z"/><rect class="e" x=".58" y="759.37" width="290.68" height="1.39"/><rect class="e" x=".58" y="795.62" width="290.68" height="1.39"/><rect class="e" x=".03" y="831.86" width="290.68" height="1.39"/><rect x="2.39" y="724.51" width="251.5" height="34.85"/><g><path class="i" d="M14.12,746.75v-4.95h1.73v4.95c0,1.47,.53,2.03,1.98,2.03,.64,0,1.14-.11,1.65-.29v-6.69h1.73v7.65h-1.67v-.58c-.56,.38-1.5,.69-2.5,.69-1.79,0-2.93-.75-2.93-2.81Zm1.22-8.36v-.53h1.25v.56c0,1.26,.38,1.66,1.38,1.66s1.36-.4,1.36-1.66v-.56h.66v.53c0,1.68-.77,2.29-2.32,2.29-1.33,0-2.32-.61-2.32-2.29Z"/><path class="i" d="M26.47,746.75v-4.95h1.73v4.95c0,1.47,.53,2.03,1.98,2.03,.64,0,1.14-.11,1.65-.29v-6.69h1.73v7.65h-1.67v-.58c-.56,.38-1.5,.69-2.5,.69-1.79,0-2.93-.75-2.93-2.81Zm3.1-8.88h1.12l1.81,2.81h-1.34l-1.34-2.11-1.36,2.11h-.69l1.81-2.81Z"/><path class="i" d="M38.82,746.75v-4.95h1.73v4.95c0,1.47,.53,2.03,1.98,2.03,.64,0,1.14-.11,1.65-.29v-6.69h1.73v7.65h-1.67v-.58c-.56,.38-1.5,.69-2.5,.69-1.79,0-2.93-.75-2.93-2.81Zm1.18-8.13h1.36v1.74h-1.36v-1.74Zm3.28,0h1.38v1.74h-1.38v-1.74Z"/><path class="i" d="M51.18,746.75v-4.95h1.73v4.95c0,1.47,.53,2.03,1.98,2.03,.64,0,1.14-.11,1.65-.29v-6.69h1.73v7.65h-1.67v-.58c-.56,.38-1.5,.69-2.5,.69-1.79,0-2.93-.75-2.93-2.81Zm4.02-6.07h-.58l-1.94-2.81h1.73l.78,2.81Z"/><path class="i" d="M63.53,746.75v-4.95h1.73v4.95c0,1.47,.53,2.03,1.98,2.03,.64,0,1.14-.11,1.65-.29v-6.69h1.73v7.65h-1.67v-.58c-.56,.38-1.5,.69-2.5,.69-1.79,0-2.93-.75-2.93-2.81Zm2.71-8.88h1.58l-1.79,2.81h-.56l.77-2.81Zm2.46,0h1.58l-1.79,2.81h-.58l.78-2.81Z"/><path class="i" d="M75.88,746.75v-4.95h1.73v4.95c0,1.47,.53,2.03,1.98,2.03,.64,0,1.14-.11,1.65-.29v-6.69h1.73v7.65h-1.67v-.58c-.56,.38-1.5,.69-2.5,.69-1.79,0-2.93-.75-2.93-2.81Zm1.23-7.43h4.63v.69h-4.63v-.69Z"/><path class="i" d="M88.23,746.75v-4.95h1.73v4.95c0,1.47,.53,2.03,1.98,2.03,.64,0,1.14-.11,1.65-.29v-6.69h1.73v7.65h-.7c-.53,.42-.8,.97-.8,1.65,0,.85,.37,1.05,1.28,1.05,.26,0,.5-.03,.67-.06v.46c-.29,.06-.67,.14-1.17,.14-1.17,0-2.02-.35-2.02-1.49,0-.77,.54-1.44,1.07-1.77v-.56c-.56,.38-1.5,.69-2.5,.69-1.79,0-2.93-.75-2.93-2.81Z"/><path class="i" d="M100.58,746.75v-4.95h1.73v4.95c0,1.47,.53,2.03,1.98,2.03,.64,0,1.14-.11,1.65-.29v-6.69h1.73v7.65h-1.67v-.58c-.56,.38-1.5,.69-2.5,.69-1.79,0-2.93-.75-2.93-2.81Zm1.76-7.89c0-1.09,.64-1.82,1.82-1.82s1.84,.73,1.84,1.82-.62,1.82-1.84,1.82-1.82-.72-1.82-1.82Zm3.17,.02c0-.8-.38-1.34-1.04-1.34-.71,0-1.06,.46-1.06,1.34s.32,1.31,1.06,1.31c.67,0,1.04-.53,1.04-1.31Z"/><path class="i" d="M112.94,746.75v-4.95h1.73v4.95c0,1.47,.53,2.03,1.98,2.03,.64,0,1.14-.11,1.65-.29v-6.69h1.73v7.65h-1.67v-.58c-.56,.38-1.5,.69-2.5,.69-1.79,0-2.93-.75-2.93-2.81Zm3.26-7.08c-.53-.53-.75-.77-1.17-.77s-.67,.21-.69,1.07v.24h-.43c-.02-.11-.03-.21-.03-.32,0-1.2,.42-1.84,1.44-1.82,.67,0,1.01,.22,1.52,.72,.51,.51,.75,.77,1.2,.77,.42,0,.66-.21,.69-1.09,0-.11,0-.14-.02-.27h.43c.02,.13,.03,.22,.03,.35,0,1.2-.42,1.84-1.44,1.82-.66,0-1.04-.19-1.54-.7Z"/><path class="i" d="M125.29,746.75v-4.95h1.73v4.95c0,1.47,.53,2.03,1.98,2.03,.64,0,1.14-.11,1.65-.29v-6.69h1.73v7.65h-1.67v-.58c-.56,.38-1.5,.69-2.5,.69-1.79,0-2.93-.75-2.93-2.81Zm3.92-8.88h1.73l-1.95,2.81h-.56l.78-2.81Z"/><path class="i" d="M137.64,746.75v-4.95h1.73v4.95c0,1.47,.53,2.03,1.98,2.03,.64,0,1.14-.11,1.65-.29v-6.69h1.73v7.65h-1.67v-.58c-.56,.38-1.5,.69-2.5,.69-1.79,0-2.93-.75-2.93-2.81Zm1.22-8.36v-.53h1.25v.56c0,1.26,.38,1.66,1.38,1.66s1.36-.4,1.36-1.66v-.56h.66v.53c0,1.68-.77,2.29-2.32,2.29-1.33,0-2.32-.61-2.32-2.29Z"/><path class="i" d="M149.99,746.75v-4.95h1.73v4.95c0,1.47,.53,2.03,1.98,2.03,.64,0,1.14-.11,1.65-.29v-6.69h1.73v7.65h-1.67v-.58c-.56,.38-1.5,.69-2.5,.69-1.79,0-2.93-.75-2.93-2.81Zm3.1-8.88h1.12l1.81,2.81h-1.34l-1.34-2.11-1.36,2.11h-.69l1.81-2.81Z"/><path class="i" d="M162.34,746.75v-4.95h1.73v4.95c0,1.47,.53,2.03,1.98,2.03,.64,0,1.14-.11,1.65-.29v-6.69h1.73v7.65h-1.67v-.58c-.56,.38-1.5,.69-2.5,.69-1.79,0-2.93-.75-2.93-2.81Zm1.18-8.13h1.36v1.74h-1.36v-1.74Zm3.28,0h1.38v1.74h-1.38v-1.74Z"/><path class="i" d="M171.16,746.75v-4.95h1.73v4.95c0,1.47,.53,2.03,1.98,2.03,.64,0,1.14-.11,1.65-.29v-6.69h1.73v7.65h-1.67v-.58c-.56,.38-1.5,.69-2.5,.69-1.79,0-2.93-.75-2.93-2.81Zm4.02-6.07h-.58l-1.94-2.81h1.73l.78,2.81Z"/><path class="i" d="M183.51,746.75v-4.95h1.73v4.95c0,1.47,.53,2.03,1.98,2.03,.64,0,1.14-.11,1.65-.29v-6.69h1.73v7.65h-1.67v-.58c-.56,.38-1.5,.69-2.5,.69-1.79,0-2.93-.75-2.93-2.81Zm2.71-8.88h1.58l-1.79,2.81h-.56l.77-2.81Zm2.46,0h1.58l-1.79,2.81h-.58l.78-2.81Z"/><path class="i" d="M195.86,746.75v-4.95h1.73v4.95c0,1.47,.53,2.03,1.98,2.03,.64,0,1.14-.11,1.65-.29v-6.69h1.73v7.65h-1.67v-.58c-.56,.38-1.5,.69-2.5,.69-1.79,0-2.93-.75-2.93-2.81Zm1.23-7.43h4.63v.69h-4.63v-.69Z"/><path class="i" d="M208.22,746.75v-4.95h1.73v4.95c0,1.47,.53,2.03,1.98,2.03,.64,0,1.14-.11,1.65-.29v-6.69h1.73v7.65h-.7c-.53,.42-.8,.97-.8,1.65,0,.85,.37,1.05,1.28,1.05,.26,0,.5-.03,.67-.06v.46c-.29,.06-.67,.14-1.17,.14-1.17,0-2.02-.35-2.02-1.49,0-.77,.54-1.44,1.07-1.77v-.56c-.56,.38-1.5,.69-2.5,.69-1.79,0-2.93-.75-2.93-2.81Z"/><path class="i" d="M220.57,746.75v-4.95h1.73v4.95c0,1.47,.53,2.03,1.98,2.03,.64,0,1.14-.11,1.65-.29v-6.69h1.73v7.65h-1.67v-.58c-.56,.38-1.5,.69-2.5,.69-1.79,0-2.93-.75-2.93-2.81Zm1.76-7.89c0-1.09,.64-1.82,1.82-1.82s1.84,.73,1.84,1.82-.62,1.82-1.84,1.82-1.82-.72-1.82-1.82Zm3.17,.02c0-.8-.38-1.34-1.04-1.34-.71,0-1.06,.46-1.06,1.34s.32,1.31,1.06,1.31c.67,0,1.04-.53,1.04-1.31Z"/><path class="i" d="M232.92,746.75v-4.95h1.73v4.95c0,1.47,.53,2.03,1.98,2.03,.64,0,1.14-.11,1.65-.29v-6.69h1.73v7.65h-1.67v-.58c-.56,.38-1.5,.69-2.5,.69-1.79,0-2.93-.75-2.93-2.81Zm3.26-7.08c-.53-.53-.75-.77-1.17-.77s-.67,.21-.69,1.07v.24h-.43c-.02-.11-.03-.21-.03-.32,0-1.2,.42-1.84,1.44-1.82,.67,0,1.01,.22,1.52,.72,.51,.51,.75,.77,1.2,.77,.42,0,.66-.21,.69-1.09,0-.11,0-.14-.02-.27h.43c.02,.13,.03,.22,.03,.35,0,1.2-.42,1.84-1.44,1.82-.66,0-1.04-.19-1.54-.7Z"/></g><path class="i" d="M273.02,743.83l-2.07,5.62h-1.36l-2.35-7.65h1.78l1.84,6.01,2.18-6.01h1.02l2.18,5.99,1.83-5.99h.72l-2.35,7.65h-1.36l-2.05-5.62Zm.96-5.96h1.73l-1.95,2.81h-.56l.78-2.81Z"/><rect x="1.85" y="760.88" width="70.63" height="34.73"/><g><path class="i" d="M20.12,778l-2.07,5.62h-1.36l-2.35-7.65h1.78l1.84,6.01,2.18-6.01h1.02l2.18,5.99,1.83-5.99h.72l-2.35,7.65h-1.36l-2.05-5.62Zm.06-5.96h1.12l1.81,2.81h-1.34l-1.34-2.11-1.36,2.11h-.69l1.81-2.81Z"/><path class="i" d="M35.58,778l-2.07,5.62h-1.36l-2.35-7.65h1.78l1.84,6.01,2.18-6.01h1.02l2.18,5.99,1.83-5.99h.72l-2.35,7.65h-1.36l-2.05-5.62Zm-1.94-5.21h1.36v1.74h-1.36v-1.74Zm3.28,0h1.38v1.74h-1.38v-1.74Z"/><path class="i" d="M51.04,778l-2.07,5.62h-1.36l-2.35-7.65h1.78l1.84,6.01,2.18-6.01h1.02l2.18,5.99,1.83-5.99h.72l-2.35,7.65h-1.36l-2.05-5.62Zm.66-3.15h-.58l-1.94-2.81h1.73l.78,2.81Z"/></g><rect x="74.51" y="760.76" width="69.32" height="34.85"/><g><path class="i" d="M87.61,775.97h1.9l2.67,5.77,2.45-5.77h.74l-4.59,10.85h-.75l1.28-3-.02,.02-3.68-7.86Zm4.87-3.93h1.73l-1.95,2.81h-.56l.78-2.81Z"/><path class="i" d="M99.07,775.97h1.9l2.67,5.77,2.45-5.77h.74l-4.59,10.85h-.75l1.28-3-.02,.02-3.68-7.86Zm3.75-3.93h1.12l1.81,2.81h-1.34l-1.34-2.11-1.36,2.11h-.69l1.81-2.81Z"/><path class="i" d="M110.52,775.97h1.9l2.67,5.77,2.45-5.77h.74l-4.59,10.85h-.75l1.28-3-.02,.02-3.68-7.86Zm1.9-3.18h1.36v1.74h-1.36v-1.74Zm3.28,0h1.38v1.74h-1.38v-1.74Z"/><path class="i" d="M121.98,775.97h1.9l2.67,5.77,2.45-5.77h.74l-4.59,10.85h-.75l1.28-3-.02,.02-3.68-7.86Zm4.83-1.12h-.58l-1.94-2.81h1.73l.78,2.81Z"/></g><path class="g" d="M203.94,779.79c0,2.62-1.57,3.93-3.6,3.93-2.15,0-3.52-1.23-3.52-3.82,0-.13,.02-.29,.03-.45h5.36c-.05-2.41-.79-2.96-2.93-2.96-.69,0-1.34,.05-2.02,.18v-.54c.72-.18,1.47-.25,2.42-.25,2.5,0,4.26,.85,4.26,3.91Zm-1.73,.24h-3.73c.06,2.17,.4,3.08,1.84,3.08s1.86-.91,1.89-3.08Z"/><path class="g" d="M228.71,779.29c0-4.63,2.32-7.57,7.36-7.57,4.77,0,7.01,2.76,7.01,6.58,0,2.17-.85,4.84-3.52,4.84h-1.83v-.45c-.54,.37-1.2,.53-1.84,.53-1.76,0-2.98-1.18-2.98-3.48s1.23-3.5,2.98-3.5c.66,0,1.3,.18,1.86,.56v-.46h1.47v6.2h.46c2.02,0,2.75-2.14,2.75-4.23,0-3.42-1.86-5.94-6.18-5.94s-5.87,2.51-5.87,6.93,1.7,7,6.13,6.96c.8,0,1.55-.08,2.32-.22v.58c-.93,.21-1.89,.3-2.82,.3-4.99,0-7.31-3.04-7.31-7.62Zm9.03,2.99v-5.08c-.4-.18-.82-.29-1.26-.29-1.17,0-2,.66-2,2.83s.85,2.84,2,2.84c.45,0,.85-.11,1.26-.3Z"/><g><path class="g" d="M259.74,778.46c0-2.24,1.39-3.55,3.7-3.55s3.71,1.31,3.71,3.55-1.38,3.55-3.71,3.55-3.7-1.33-3.7-3.55Zm6.96,0c0-1.98-1.2-3.15-3.27-3.15s-3.23,1.17-3.23,3.15,1.2,3.13,3.23,3.13,3.27-1.15,3.27-3.13Zm-3.46,.48h-.48v1.63h-.96v-4.25h1.62c1.04,0,1.78,.4,1.78,1.31,0,.61-.35,1.02-.93,1.2l1.02,1.74h-1.07l-.98-1.63Zm.16-.43c.56,0,.78-.26,.78-.88s-.22-.88-.82-.88h-.61v1.76h.64Z"/><path class="g" d="M272.25,780.92c0-3.77,2.37-6.07,6.31-6.07s6.32,2.3,6.32,6.07-2.37,6.07-6.32,6.07-6.31-2.3-6.31-6.07Zm12,0c0-3.47-2.1-5.53-5.7-5.53s-5.7,2.06-5.7,5.53,2.1,5.53,5.7,5.53,5.7-2.06,5.7-5.53Zm-4.26,3.64l-1.65-2.78h-1.1v2.78h-1.34v-7.16h2.61c1.73,0,2.88,.66,2.88,2.16,0,1.07-.62,1.79-1.65,2.08l1.75,2.92h-1.49Zm-1.5-3.39c1.01,0,1.5-.48,1.5-1.58s-.5-1.61-1.57-1.61h-1.18v3.2h1.25Z"/></g><path class="g" d="M11.59,815.98c0-3.77,2.37-6.07,6.31-6.07s6.32,2.3,6.32,6.07-2.37,6.07-6.32,6.07-6.31-2.3-6.31-6.07Zm12,0c0-3.47-2.08-5.53-5.7-5.53s-5.7,2.06-5.7,5.53,2.1,5.53,5.7,5.53,5.7-2.06,5.7-5.53Zm-8.77,.1c0-2.59,1.26-3.74,3.51-3.74,.56,0,1.15,.08,1.78,.21v.45c-.38-.06-.98-.13-1.47-.13-1.84,0-2.46,.83-2.46,3.2s.62,3.16,2.46,3.16c.46,0,.98-.03,1.5-.11v.43c-.61,.13-1.23,.19-1.81,.19-2.24,0-3.51-1.05-3.51-3.66Z"/><path class="g" d="M47.95,815.98c0-3.77,2.37-6.07,6.31-6.07s6.32,2.3,6.32,6.07-2.37,6.07-6.32,6.07-6.31-2.3-6.31-6.07Zm12,0c0-3.47-2.1-5.53-5.7-5.53s-5.7,2.06-5.7,5.53,2.1,5.53,5.7,5.53,5.7-2.06,5.7-5.53Zm-8.1-3.51h2.54c1.9,0,2.95,.7,2.95,2.32s-1.04,2.38-2.88,2.38h-1.26v2.46h-1.34v-7.16Zm2.59,4.09c1.01,0,1.49-.53,1.49-1.74s-.48-1.77-1.55-1.77h-1.18v3.51h1.25Z"/><path class="g" d="M85.26,810.08h4.77v.42h-1.84v5.38h-1.07v-5.38h-1.86v-.42Zm5.86,1.23v4.57h-.43v-5.8h1.04l1.9,4.76,1.91-4.76h1.06v5.8h-1.06v-4.67l-1.84,4.67h-.74l-1.84-4.57Z"/><rect x="110.6" y="797.01" width="70.63" height="34.85"/><g><path class="g" d="M117.09,815.67h3.31v-3.2h.66v3.2h3.3v.64h-3.3v3.2h-.66v-3.2h-3.31v-.64Z"/><path class="g" d="M129.07,815.67h7.27v.64h-7.27v-.64Z"/><path class="g" d="M141.7,818.5l2.54-2.49-2.56-2.52,.45-.45,2.58,2.52,2.56-2.51,.43,.43-2.56,2.51,2.56,2.49-.45,.45-2.56-2.49-2.56,2.49-.43-.43Z"/><path class="g" d="M153.04,815.67h7.27v.64h-7.27v-.64Zm3.01-3.15h1.26v1.5h-1.26v-1.5Zm0,5.42h1.26v1.52h-1.26v-1.52Z"/><path class="g" d="M165.03,813.77h7.27v.64h-7.27v-.64Zm0,3.8h7.27v.62h-7.27v-.62Z"/></g><g><path class="g" d="M189.27,816.19v-.69l6.75-3v.69l-5.94,2.67,5.94,2.64v.69l-6.75-2.99Z"/><path class="g" d="M201.25,818.49l5.94-2.65-5.94-2.65v-.69l6.75,3v.69l-6.75,2.99v-.69Z"/></g><rect x="219.18" y="797.01" width="70.63" height="34.85"/><g><path class="g" d="M220.57,821.65v-.56c1.04,.11,2.16,.21,3.39,.21h.43v-4.75c-1.17-.33-2.08-.65-2.71-1.13-.64-.5-.98-1.18-.98-2.21,0-2.19,1.55-3.02,3.67-3.2v-1.23h.72v1.2h.21c.8,0,2.02,.11,3.11,.3v.58c-.91-.11-1.94-.21-2.85-.21-.16,0-.32,0-.46,.02v4.31l.34,.1c1.2,.34,2.1,.64,2.74,1.1,.71,.53,1.06,1.23,1.06,2.33,0,2.27-1.89,3.24-4.11,3.42v1.21h-.72v-1.18h-.14c-1.17,0-2.48-.11-3.68-.32Zm3.81-6.89v-4.03c-1.26,.21-2.02,.78-2.02,1.98,0,.7,.21,1.13,.66,1.44,.32,.22,.77,.42,1.36,.61Zm.74,2.01v4.46c1.6-.21,2.46-.9,2.46-2.22,0-.74-.21-1.18-.7-1.52-.38-.29-.96-.48-1.76-.72Z"/><path class="g" d="M237.54,819.91c-2.3-.19-3.55-1.49-3.55-3.88s1.25-3.69,3.55-3.88v-2.06h.72v2.03c.72,.02,1.36,.11,1.9,.21v.53c-.5-.08-.99-.11-1.5-.11-.14,0-.27,.02-.4,.02v6.55c.13,.02,.26,.02,.4,.02,.51,0,1.07-.05,1.57-.13v.53c-.56,.13-1.23,.21-1.97,.21v1.95h-.72v-1.96Zm0-.7v-6.36c-1.25,.3-1.78,1.2-1.78,3.16s.53,2.91,1.78,3.2Z"/><path class="g" d="M244.45,814.06h1.04c.54-2.81,2.37-4.07,5.27-4.07,.77,0,1.55,.11,2.32,.3v.58c-.58-.13-1.22-.21-1.81-.21-2.51,0-3.63,.93-3.97,3.4h4.13v.64h-4.19c-.03,.4-.03,.81-.03,1.26,0,.48,.02,.91,.05,1.31h3.17v.62h-3.1c.32,2.48,1.44,3.4,3.95,3.4,.62,0,1.26-.1,1.87-.21v.58c-.78,.19-1.58,.3-2.38,.3-2.9,0-4.74-1.23-5.27-4.07h-1.04v-.62h.94c-.05-.4-.06-.82-.06-1.28s.02-.88,.06-1.29h-.94v-.64Z"/><path class="g" d="M258.05,815.64h1.49l-.48-1.63c-.13-.42-.19-.81-.19-1.17,0-1.93,1.71-2.86,3.84-2.86,.83,0,1.58,.11,2.4,.3v.58c-.62-.13-1.23-.21-1.89-.21-1.75-.02-2.56,.62-2.56,1.82,0,.33,.06,.73,.19,1.17l.58,2h2.35v.62h-2.16l.22,.78c.13,.42,.18,.77,.18,1.09,0,1.18-.83,1.9-2.99,3.1h6.47v.64h-7.88v-.64c1.71-1.05,2.64-1.57,2.64-2.72,0-.29-.05-.59-.16-.97l-.38-1.28h-1.66v-.62Z"/><path class="g" d="M270.64,816.95h2.4l-3.3-6.87h2.03l2.9,6.34,2.95-6.34h.83l-3.25,6.87h2.48v.61h-2.66v1.87h2.66v.62h-2.66v1.82h-1.78v-1.82h-2.61v-.62h2.61v-1.87h-2.61v-.61Z"/><path class="g" d="M283.45,815.28h1.38v-2.86c0-1.84,1.07-2.41,2.34-2.41,.54,0,.9,.05,1.28,.13v.56c-.24-.03-.42-.05-.69-.05-.82,0-1.15,.29-1.15,1.37v3.26h1.38v.62h-1.38v3.61c0,1.84-1.07,2.41-2.32,2.41-.54,0-.91-.05-1.28-.13v-.54c.24,.02,.4,.05,.67,.05,.82,0,1.15-.29,1.15-1.37v-4.03h-1.38v-.62Z"/></g><rect class="e" x=".06" y="868.23" width="291" height="1.27"/><path class="g" d="M18.36,854.17h-3.01l-.26,3.2h-1.52l.26-3.2h-1.81l.06-.62h1.79l.35-4.15h-1.81l.06-.62h1.79l.27-3.2h1.52l-.27,3.2h3.01l.27-3.2h1.5l-.27,3.2h1.89l-.06,.62h-1.87l-.34,4.15h1.87l-.06,.62h-1.86l-.26,3.2h-1.52l.26-3.2Zm-2.96-.62h3.01l.35-4.15h-3.01l-.35,4.15Z"/><path class="f" d="M51.5,857.2v-.56c.77,.1,1.68,.16,2.46,.16,2.43,0,3.65-.67,3.89-2.73-.62,.08-1.31,.13-2.07,.13-3.28,0-5.03-1.47-5.03-4.33s1.78-4.38,5.07-4.38c.94,0,1.79,.13,2.53,.26v.54c-.66-.1-1.36-.14-2.03-.14-2.45,0-3.63,.75-3.83,3,.66-.08,1.39-.14,2.19-.14,3.22,0,4.93,1.39,4.93,4.25s-1.79,4.19-5.19,4.19c-1.07,0-2.16-.11-2.94-.24Zm6.4-3.71v-.27c0-2.73-1.07-3.58-3.79-3.58-.53,0-1.09,.02-1.62,.06v.13c0,2.81,1.07,3.72,3.79,3.72,.51,0,1.07-.02,1.62-.06Z"/><path class="f" d="M92.65,857.44v-11.15h-1.81v6.76h-.8c-2.67,0-4.26-1.29-4.26-3.79s1.71-3.61,4.35-3.61h4.29v11.79h-1.78Z"/><rect x="110.58" y="833.25" width="70.63" height="34.85"/><g><path class="f" d="M127.33,848.34c0-1.66,1.06-2.86,3.01-2.86s2.98,1.2,2.98,2.86-1.04,2.86-2.98,2.86-3.01-1.23-3.01-2.86Zm4.59,0c0-1.58-.42-2.28-1.58-2.28s-1.62,.7-1.62,2.28,.42,2.28,1.62,2.28,1.58-.81,1.58-2.28Zm5.01-2.76h.79l-6.1,11.79h-.77l6.08-11.79Zm-1.68,8.99c0-1.65,1.06-2.84,3.01-2.84s2.98,1.2,2.98,2.84-1.04,2.86-2.98,2.86-3.01-1.21-3.01-2.86Zm4.59,.02c0-1.6-.42-2.3-1.58-2.3s-1.62,.7-1.62,2.3,.42,2.27,1.62,2.27,1.58-.8,1.58-2.27Z"/><path class="f" d="M145.76,848.34c0-1.66,1.06-2.86,3.01-2.86s2.98,1.2,2.98,2.86-1.04,2.86-2.98,2.86-3.01-1.23-3.01-2.86Zm4.59,0c0-1.58-.42-2.28-1.58-2.28s-1.62,.7-1.62,2.28,.42,2.28,1.62,2.28,1.58-.81,1.58-2.28Zm5.03-2.76h.75l-6.08,11.79h-.77l6.1-11.79Zm-1.7,8.99c0-1.65,1.06-2.84,3.01-2.84s2.98,1.2,2.98,2.84-1.04,2.86-2.98,2.86-3.01-1.21-3.01-2.86Zm4.59,.02c0-1.6-.42-2.3-1.58-2.3s-1.62,.7-1.62,2.3,.42,2.27,1.62,2.27,1.58-.8,1.58-2.27Zm2.1-.02c0-1.65,1.06-2.84,3.01-2.84s2.99,1.2,2.99,2.84-1.06,2.86-2.99,2.86-3.01-1.21-3.01-2.86Zm4.61,.02c0-1.6-.42-2.3-1.6-2.3s-1.6,.7-1.6,2.3,.42,2.27,1.6,2.27,1.6-.8,1.6-2.27Z"/></g><path class="f" d="M197.33,847.59c0-1.28,.8-2.17,2.02-2.17s2.03,.89,2.03,2.17-.8,2.16-2.03,2.16-2.02-.88-2.02-2.16Zm3.44,0c0-.94-.54-1.58-1.42-1.58s-1.41,.64-1.41,1.58,.54,1.57,1.41,1.57,1.42-.62,1.42-1.57Z"/><g><path class="f" d="M232.3,845.57h1.82l-1.31,3.82h-.51v-3.82Z"/><path class="f" d="M239.34,845.57h1.76l-1.26,3.83h-.5v-3.83Zm2.45,0h1.76l-1.25,3.83h-.51v-3.83Z"/></g><g><path class="f" d="M259.66,849.74c0-1.13,.75-1.77,2.29-1.77h1.54v-.64c0-1.13-.59-1.23-1.63-1.23-.5,0-1.01,.05-1.44,.11v-.46c.51-.1,1.1-.18,1.76-.18,1.65,0,2.61,.4,2.61,1.84v4.01h-1.28v-.35c-.37,.24-.93,.43-1.67,.43-1.47,0-2.18-.72-2.18-1.76Zm.45,2.68h4.51v.66h-4.51v-.66Zm3.38-1.69v-2.32h-1.18c-1.04,0-1.28,.34-1.28,1.26s.26,1.28,1.25,1.28c.58,0,1.01-.14,1.22-.22Z"/><path class="f" d="M269.79,848.54c0-1.82,1.09-2.99,2.91-2.99s2.91,1.17,2.91,2.99-1.07,2.97-2.91,2.97-2.91-1.15-2.91-2.97Zm.66,3.88h4.51v.66h-4.51v-.66Zm3.79-3.88c0-1.68-.42-2.46-1.54-2.46s-1.52,.78-1.52,2.46,.4,2.46,1.52,2.46,1.54-.81,1.54-2.46Z"/><path class="f" d="M280.54,849.01c0-2.11,1.02-3.43,2.98-3.43s2.98,1.33,2.98,3.43-1.02,3.39-2.98,3.39-2.98-1.29-2.98-3.39Zm4.61-.02c0-2.19-.43-2.92-1.63-2.92s-1.62,.74-1.62,2.92,.43,2.91,1.62,2.91,1.63-.7,1.63-2.91Z"/></g></g></g></svg>